<svg xmlns="http://www.w3.org/2000/svg" width="32.213" height="32.212" viewBox="0 0 32.213 32.212">
  <defs>
    <style>
      .cls-1 {
        fill: #0040fe;
      }

      .cls-2 {
        fill: #fdfefe;
      }
    </style>
  </defs>
  <g id="digipay" transform="translate(-25.62 -13.48)">
    <path id="Path_5459" data-name="Path 5459" class="cls-1" d="M57.833,19.835V39.4c-.1.035-.061.122-.073.188a7.189,7.189,0,0,1-5.6,5.951,2.236,2.236,0,0,0-.683.153H31.912c-.035-.1-.122-.061-.188-.073a7.191,7.191,0,0,1-5.951-5.6,1.578,1.578,0,0,0-.153-.619V19.771c.1-.035.061-.122.073-.188a7.189,7.189,0,0,1,5.6-5.951,1.578,1.578,0,0,0,.619-.153H51.478c.02.066.077.056.126.063a7.165,7.165,0,0,1,6.059,5.548A2.477,2.477,0,0,0,57.833,19.835ZM43.508,27v.007c-1.531,0-3.062-.025-4.592.006a4.036,4.036,0,0,0-3.862,3.832c-.042,2.778-.016,5.557-.026,8.335,0,.191.051.254.247.25.6-.012,1.2.008,1.793-.008a4.131,4.131,0,0,0,4.146-4.229c0-.556.012-1.111,0-1.667-.007-.239.048-.321.305-.316.88.017,1.762,0,2.642.008a4.14,4.14,0,0,0,4.267-4.262c-.022-.555-.015-1.111,0-1.667.008-.235-.058-.3-.295-.3C46.591,27.006,45.049,27,43.508,27ZM40,19.767v0c-1.561,0-3.122.006-4.683-.006-.239,0-.3.064-.293.3.019.67,0,1.341.02,2.011A4.031,4.031,0,0,0,38.9,25.934c3.1.044,6.2.016,9.3.026.189,0,.224-.073.222-.24-.011-.712.006-1.425-.019-2.137A4.057,4.057,0,0,0,44.5,19.771C43,19.756,41.5,19.767,40,19.767Z"/>
    <path id="Path_5460" data-name="Path 5460" class="cls-2" d="M183.59,228.225c1.541,0,3.083.006,4.624-.006.237,0,.3.06.295.3-.018.555-.025,1.112,0,1.667a4.138,4.138,0,0,1-4.267,4.262c-.88-.011-1.762.009-2.642-.008-.257-.005-.312.077-.305.316.017.555.009,1.111,0,1.667a4.13,4.13,0,0,1-4.146,4.229c-.6.016-1.2,0-1.793.008-.2,0-.247-.059-.247-.25.009-2.779-.016-5.557.026-8.335A4.036,4.036,0,0,1,179,228.238c1.53-.031,3.061-.006,4.592-.006Z" transform="translate(-140.082 -201.225)"/>
    <path id="Path_5461" data-name="Path 5461" class="cls-2" d="M180.068,113.21c1.5,0,3-.011,4.495,0a4.058,4.058,0,0,1,3.907,3.812c.025.712.008,1.425.019,2.137,0,.167-.032.24-.222.24-3.1-.009-6.2.018-9.3-.026a4.03,4.03,0,0,1-3.852-3.867c-.023-.67,0-1.341-.02-2.011-.007-.233.055-.3.293-.3,1.561.011,3.122.006,4.683.006A.023.023,0,0,0,180.068,113.21Z" transform="translate(-140.065 -93.444)"/>
  </g>
</svg>
