<svg xmlns="http://www.w3.org/2000/svg" width="45" height="31.69" viewBox="0 0 45 31.69">
  <defs>
    <style>
      .cls-1 {
        fill: #3497fd;
      }
    </style>
  </defs>
  <path id="Shetab-logo-LimooGraphic" class="cls-1" d="M51.693,40.768c.211,0,.42-.035.631-.037q17.986,0,35.971,0a4.852,4.852,0,0,1,3.519,1.347,4.343,4.343,0,0,1,1.164,2.968c0,.648,0,1.3,0,1.944q-10.816,0-21.633,0c-.391-.045-.785-.021-1.177-.037-.276-.054-.558,0-.835-.037-.227-.029-.457-.011-.685-.024-.911-.058-1.826-.1-2.736-.187-1.032-.072-2.037-.338-3.061-.479a13.265,13.265,0,0,0-3.5-.048,2.571,2.571,0,0,0-1.517.544.6.6,0,0,0-.149.69,1.439,1.439,0,0,0,.931.575c.24.072.494,0,.737.06.326.02.654-.014.98.029a17.094,17.094,0,0,0,3.333-.2l.167-.012c.368-.064.738-.113,1.107-.168,1.432-.189,2.88-.227,4.319-.306.6-.009,1.19-.036,1.785-.068q10.968,0,21.937,0v1.823q-11.557,0-23.114,0c-.1-.021-.21-.031-.315-.049-.241-.019-.479-.052-.719-.077-1.495-.189-2.987-.437-4.5-.484-.476-.065-.96.017-1.435-.05-1.964-.008-3.927,0-5.891,0-.544.063-1.094,0-1.639.06a2.947,2.947,0,0,0-1.729.313.738.738,0,0,0-.36.856,1.146,1.146,0,0,0,.823.571,8.73,8.73,0,0,0,1.989.113c.749.06,1.5.018,2.252.031.83.012,1.662-.03,2.49.031,1.35-.006,2.7.028,4.048-.083.263-.012.527-.029.789-.06.589-.046,1.175-.114,1.761-.182.162-.018.324-.038.485-.061.346-.034.69-.081,1.034-.123l.165-.016c.9-.152,1.809-.033,2.712-.114q5.652,0,11.305,0c.162,0,.322-.033.485-.03q4.68,0,9.359,0v1.793H73.471a7.639,7.639,0,0,1-1.07-.052c-1.09-.074-2.178-.187-3.269-.261q-1.334-.12-2.673-.181-2.111-.133-4.23-.113c-.848-.061-1.7-.019-2.551-.032-1.417,0-2.835,0-4.252,0a1.34,1.34,0,0,0-.283.025c-.374.018-.748,0-1.122.01a6.559,6.559,0,0,0-1.788.184.962.962,0,0,0-.7.818.706.706,0,0,0,.333.506,2.655,2.655,0,0,0,1.39.319c.556.053,1.119.01,1.677.022,1.011.06,2.026.02,3.039.032h2.917c1.053.083,2.108-.012,3.162-.03,2.321-.114,4.642-.279,6.961-.448.777-.046,1.554-.09,2.33-.13q5.105,0,10.21,0c.426,0,.853.018,1.276-.029q4.071,0,8.143,0v1.732q-9.631,0-19.262,0a15.856,15.856,0,0,1-1.605-.131c-.182-.026-.364-.044-.546-.061s-.364-.044-.547-.061-.365-.044-.547-.06c-.4-.051-.809-.09-1.215-.122-1.009-.1-2.023-.157-3.037-.179-.389-.063-.786.01-1.176-.045-.633-.035-1.269.024-1.9-.04H55.364a1.28,1.28,0,0,0-.221.024c-.616.024-1.234-.022-1.848.038-.425-.021-.848.035-1.272.031a1.669,1.669,0,0,0-1.149.462.617.617,0,0,0-.07.823,1.717,1.717,0,0,0,1.16.478c.424.061.853,0,1.277.053.686.027,1.375-.028,2.06.036.729,0,1.458,0,2.187,0a11.928,11.928,0,0,0,1.217.029c.77,0,1.54,0,2.311,0,.849.059,1.7.024,2.556.029.454-.061.913,0,1.368-.046,1.864-.062,3.728-.184,5.59-.337.584-.035,1.167-.095,1.751-.14.145-.02.292-.021.437-.041a24.375,24.375,0,0,1,2.7-.07q4.405,0,8.81,0c.99-.062,1.984-.018,2.976-.032h5.772v1.641q-9.175,0-18.35,0a8.216,8.216,0,0,1-1-.1c-.162-.023-.324-.043-.486-.06-.363-.052-.729-.081-1.094-.122-.2-.029-.4-.048-.607-.061-.725-.072-1.451-.12-2.178-.151-.339-.047-.682,0-1.02-.044-.4-.028-.8.018-1.2-.034-.894-.025-1.793.03-2.685-.036q-4.922,0-9.843,0a3.045,3.045,0,0,0-.583.024c-.473.022-.949-.019-1.42.036a3.009,3.009,0,0,0-1.669.281.772.772,0,0,0-.426.772c.045.265.29.423.511.537a3.275,3.275,0,0,0,1.3.21c.574.067,1.156-.019,1.73.05.55.011,1.1,0,1.65,0,.928.08,1.863-.018,2.791.06,1.095.015,2.192-.032,3.285.032,1.095-.006,2.191.006,3.287-.006.418-.06.842,0,1.261-.044,1.717-.053,3.435-.134,5.148-.278.341-.007.68-.057,1.021-.078.222-.028.445-.045.669-.06.182-.027.365-.045.547-.061.333-.037.667-.09,1-.112q4.986,0,9.971,0c.584-.055,1.173-.021,1.759-.03h6.627c0,.577,0,1.155,0,1.732q-9.692,0-19.384,0a4.548,4.548,0,0,1-.521-.052l-.78-.079c-.182-.026-.364-.044-.546-.061s-.365-.044-.547-.061q-.576-.069-1.154-.122c-.222-.03-.444-.049-.667-.06q-.849-.086-1.7-.121c-.464-.038-.932-.052-1.4-.06-.389-.062-.787.011-1.177-.044-.518-.029-1.038.006-1.557-.017a2.171,2.171,0,0,0-.461-.024c-2.615,0-5.229,0-7.844,0-.621.07-1.248-.013-1.869.052-.3.025-.6-.025-.9.03a2.429,2.429,0,0,0-1.325.249.816.816,0,0,0-.464.7.6.6,0,0,0,.284.5,2.153,2.153,0,0,0,1.141.332c.391.052.787-.012,1.179.046.551.012,1.1,0,1.652,0,.828.062,1.661.019,2.492.03,1.436.082,2.878-.021,4.314.063.59,0,1.179,0,1.768,0,.474-.062.954,0,1.429-.046,1.641-.055,3.282-.151,4.921-.276q.79-.053,1.58-.121c.243-.017.486-.032.729-.061.514-.035,1.026-.09,1.54-.13q5.077,0,10.154,0c.828-.06,1.659-.019,2.488-.031h6.624v1.641q-9.9,0-19.81,0c-.212,0-.42-.033-.631-.04-.146-.021-.293-.022-.438-.042-2.83-.207-5.661-.42-8.5-.506-.465-.05-.934.007-1.4-.032a5.031,5.031,0,0,0-.641-.018H55.849c-.608-.013-1.213.052-1.822.031a7.933,7.933,0,0,0-1.706.151,1.06,1.06,0,0,0-.76.706.664.664,0,0,0,.408.713,2.755,2.755,0,0,0,1.2.253c.69.055,1.382.021,2.074.029,1.09.063,2.184.018,3.276.032,1.053.013,2.108-.031,3.16.032,1.006-.009,2.015.026,3.017-.056.405-.011.812-.026,1.215-.059.3-.016.608-.027.911-.061.568-.026,1.135-.075,1.7-.12,1.35-.094,2.7-.221,4.048-.3.764-.062,1.53-.037,2.3-.041h8.263a3.116,3.116,0,0,0,.584-.024c3.086-.017,6.173,0,9.259-.007,0,.577,0,1.155,0,1.732H70a13.211,13.211,0,0,1-1.783-.161c-.246-.034-.493-.064-.738-.1-.2-.027-.4-.06-.6-.079-.524-.075-1.051-.14-1.578-.183-.56-.051-1.122-.089-1.685-.085a9.011,9.011,0,0,0-1.031-.027H57.245a5.425,5.425,0,0,0-.666.018c-.4.041-.8-.024-1.192.036a4.154,4.154,0,0,0-1.439.148,1.044,1.044,0,0,0-.7.709.658.658,0,0,0,.309.623,2.651,2.651,0,0,0,1.388.323c.828.072,1.661-.02,2.488.057q2.735,0,5.47,0a11.9,11.9,0,0,0,1.19-.024,9.454,9.454,0,0,0,1.032-.059c.61-.037,1.216-.109,1.823-.182.162-.017.324-.038.485-.061s.324-.038.486-.061c.346-.033.69-.082,1.034-.122.183-.017.366-.034.547-.065.838-.027,1.68.029,2.516-.037q5.407,0,10.814,0a11.492,11.492,0,0,0,1.209-.029c2.979,0,5.959,0,8.938,0,0,.618,0,1.236,0,1.855H73.652c-1.142,0-2.285.02-3.426-.037-.464-.038-.932-.049-1.4-.061-1.217-.07-2.44-.129-3.652-.276-.67-.1-1.338-.22-2.008-.315-.22-.03-.439-.059-.66-.08A6.951,6.951,0,0,0,61.557,65c-.546-.078-1.091.032-1.638,0-.414.04-.829.019-1.242.066a1.448,1.448,0,0,0-1,.643.7.7,0,0,0,.212.86,2.609,2.609,0,0,0,1.447.508,5.237,5.237,0,0,0,.606.06,11.255,11.255,0,0,0,3.233-.17q1.013-.192,2.023-.393c.863-.1,1.73-.161,2.6-.229,1.284-.073,2.569-.118,3.854-.16q10.662,0,21.326,0c-.018.839.04,1.681-.037,2.517a4.307,4.307,0,0,1-2.444,3.327,4.118,4.118,0,0,1-1.444.379q-18.422.021-36.845.007a4.143,4.143,0,0,1-2.469-.817,4.347,4.347,0,0,1-1.75-3.323c-.016-7.723,0-15.449-.007-23.173a4.391,4.391,0,0,1,1.04-2.878,4.162,4.162,0,0,1,2.672-1.461" transform="translate(-47.98 -40.73)"/>
</svg>
