<svg id="Group_3481" data-name="Group 3481" xmlns="http://www.w3.org/2000/svg" width="188" height="56">
    <defs>
        <clipPath id="clip-path">
            <path id="Rectangle_1582" data-name="Rectangle 1582" style="fill:none" d="M0 0h188v56H0z"/>
        </clipPath>
        <style>
            .cls-3{fill:#fff}.cls-5{fill:#f82e11}.cls-7{fill:#78787b}
        </style>
    </defs>
    <g id="Group_3480" data-name="Group 3480" style="clip-path:url(#clip-path)">
        <rect id="Rectangle_1575" data-name="Rectangle 1575" class="cls-3" width="186" height="54" rx="9" transform="translate(1 1)"/>
        <path id="Path_5022" data-name="Path 5022" d="M178 2a8.009 8.009 0 0 1 8 8v36a8.009 8.009 0 0 1-8 8H10a8.009 8.009 0 0 1-8-8V10a8.009 8.009 0 0 1 8-8h168m0-2H10A10 10 0 0 0 0 10v36a10 10 0 0 0 10 10h168a10 10 0 0 0 10-10V10a10 10 0 0 0-10-10" style="fill:#a6a6a6"/>
        <path id="Path_5023" data-name="Path 5023" d="M98.381 31.469v6.377a6.5 6.5 0 0 1-6.5 6.505 7.55 7.55 0 0 1-.824 0 6.593 6.593 0 0 1-5.657-6.505v-16.6a1.776 1.776 0 0 1 1.761-1.79h.039a1.747 1.747 0 0 1 1.264.526 1.653 1.653 0 0 1 .256.3 1.867 1.867 0 0 1 .27.966v16.6a2.912 2.912 0 0 0 5.823.005V31.54a1.8 1.8 0 0 1 3.593-.071z"/>
        <path id="Path_5024" data-name="Path 5024" d="M72.659 34.906v2.6a8.518 8.518 0 0 1-.142 1.222 7.1 7.1 0 0 1-7.244 5.6H65.2a7.63 7.63 0 0 1-.98 0h-.128a1.818 1.818 0 0 1 .128-3.594h.171a6.839 6.839 0 0 0 3.522-.994 2.414 2.414 0 0 0 1.096-1.94v-2.766a2.666 2.666 0 0 0-.526-1.591 3.86 3.86 0 0 0-3.409-1.349h-.1a1.833 1.833 0 0 1-2.358-1.733 1.8 1.8 0 0 1 .952-1.633l.483-.185a6.911 6.911 0 0 1 2.116-.341h.256a6.562 6.562 0 0 1 6.235 6.7"/>
        <path id="Path_5025" data-name="Path 5025" d="M82.275 30.177v10.4a7.018 7.018 0 0 1-.142 1.235 7.1 7.1 0 0 1-7.229 5.6h-1.179a1.834 1.834 0 1 1 .127-3.665h.171a6.842 6.842 0 0 0 3.508-.98 2.3 2.3 0 0 0 .966-1.307 2.89 2.89 0 0 0 .142-.923v-10.4a1.818 1.818 0 1 1 3.636.043"/>
        <path id="Path_5026" data-name="Path 5026" d="M103.217 19.609a1.828 1.828 0 0 1 1.825 1.832v21.3a1.825 1.825 0 1 1-3.65 0v-21.3a1.828 1.828 0 0 1 1.825-1.832"/>
        <path id="Path_5027" data-name="Path 5027" d="M96.393 21.3a1.833 1.833 0 1 1-1.832 1.833 1.833 1.833 0 0 1 1.832-1.833"/>
        <path id="Path_5028" data-name="Path 5028" d="M42.378 21.3a1.833 1.833 0 1 1-1.832 1.833 1.833 1.833 0 0 1 1.832-1.833"/>
        <path id="Path_5029" data-name="Path 5029" d="M44.1 36.241a8.281 8.281 0 0 1 .795 3.593 7.538 7.538 0 0 1-1.651 4.266C38.5 50.2 28.4 47.9 26.5 40.417A8.976 8.976 0 0 1 26.257 39v-8.881a1.988 1.988 0 0 1 1.576-2h.725a1.988 1.988 0 0 1 1.619 2v7.272a6.037 6.037 0 0 0 3.139 5.824 5.682 5.682 0 0 0 6.633-.9 4.745 4.745 0 0 0 0-6.221l-3.793-4.417a2.158 2.158 0 0 1 .171-3.011l.326-.284a1.967 1.967 0 0 1 .924-.27h6.363a2.046 2.046 0 0 1 2.017 1.832 1.974 1.974 0 0 1-1.812 2.124 1.471 1.471 0 0 1-.163.006h-1.6a.526.526 0 0 0-.383.881 12.95 12.95 0 0 1 2.1 3.281"/>
        <path id="Path_5030" data-name="Path 5030" d="M54.025 28.331h-.256a6.719 6.719 0 0 0-6.733 6.7v.028a7.773 7.773 0 0 0 .1 1.15 6.733 6.733 0 0 0 6.633 5.568l2.84-.184c-.568 1.064-1.988 1.96-4.587 2.144h-.171a1.818 1.818 0 0 0-.071 3.565h.128a8.011 8.011 0 0 0 .98 0h.071a7.1 7.1 0 0 0 7.244-5.6 8.215 8.215 0 0 0 .142-1.221v-5.674a6.5 6.5 0 0 0-6.32-6.476m-3.04 6.732a2.848 2.848 0 0 1 .241-1.165 2.636 2.636 0 0 1 .583-.823 2.75 2.75 0 0 1 1.974-.824 2.838 2.838 0 0 1 2.317 1.207 2.692 2.692 0 0 1 .5 1.577 2.805 2.805 0 1 1-5.61.028"/>
        <path id="Path_5031" data-name="Path 5031" class="cls-5" d="m148.313 12.456.386-3.1a.53.53 0 0 0-.83-.5l-1.738 1.227a.528.528 0 0 1-.649-.031L143.6 8.43a.529.529 0 0 0-.689 0l-1.885 1.623a.529.529 0 0 1-.65.031l-1.738-1.227a.529.529 0 0 0-.829.5l.385 3.1a.639.639 0 0 1-.437.687 17.994 17.994 0 1 0 11 0 .643.643 0 0 1-.442-.689"/>
        <path id="Path_5032" data-name="Path 5032" class="cls-3" d="M143.9 14.72a6.254 6.254 0 0 1 2.732-.349c7.992.673 12.692 7.54 12.692 15.9 0 8.811-5.388 15.959-13.981 15.959-7.768 0-8.517-26.071-2.244-31.1a3.061 3.061 0 0 1 .8-.414"/>
        <path id="Path_5033" data-name="Path 5033" d="M146.131 16.086a2.753 2.753 0 0 0-1.55.488c-4.694 3.129-5.1 20.522-1.229 26.148a4.151 4.151 0 0 0 2.3 1.686 1.95 1.95 0 0 0 .474.079c7.208 0 11.428-6.36 11.428-14.2s-4.215-14.2-11.428-14.2" style="fill:#fbb8af"/>
        <path id="Path_5034" data-name="Path 5034" class="cls-5" d="M144.975 32.751a1.785 1.785 0 1 1-1.786 1.785 1.785 1.785 0 0 1 1.786-1.785"/>
        <path id="Path_5035" data-name="Path 5035" class="cls-5" d="M148.545 28.559a1.786 1.786 0 1 1-1.785 1.785 1.785 1.785 0 0 1 1.785-1.785"/>
        <path id="Path_5036" data-name="Path 5036" class="cls-5" d="M144.975 24.442a1.786 1.786 0 1 1-1.786 1.785 1.785 1.785 0 0 1 1.786-1.785"/>
        <path id="Path_5037" data-name="Path 5037" class="cls-5" d="M148.667 19.371a2.066 2.066 0 1 1-2.067 2.067 2.067 2.067 0 0 1 2.067-2.067"/>
        <path id="Path_5038" data-name="Path 5038" class="cls-5" d="M148.667 36.944a2.066 2.066 0 1 1-2.067 2.067 2.067 2.067 0 0 1 2.067-2.067"/>
        <path id="Path_5039" data-name="Path 5039" class="cls-5" d="M152.53 23.26a1.8 1.8 0 1 1-1.795 1.8 1.8 1.8 0 0 1 1.795-1.8"/>
        <path id="Path_5040" data-name="Path 5040" class="cls-5" d="M153.829 28.551a1.794 1.794 0 1 1-1.793 1.793 1.793 1.793 0 0 1 1.793-1.793"/>
        <path id="Path_5041" data-name="Path 5041" class="cls-5" d="M152.53 33.678a1.793 1.793 0 1 1-1.793 1.794 1.794 1.794 0 0 1 1.793-1.794"/>
        <path id="Path_5042" data-name="Path 5042" class="cls-7" d="M29.975 14.6a2.718 2.718 0 0 1-.1.769 1.263 1.263 0 0 1-.3.532 1.226 1.226 0 0 1-.511.309 2.368 2.368 0 0 1-.73.1h-.565v.773h.565a2.944 2.944 0 0 0 1.045-.17 1.981 1.981 0 0 0 .755-.488 2.058 2.058 0 0 0 .456-.78 3.3 3.3 0 0 0 .153-1.045v-2.557h-.773z"/>
        <path id="Rectangle_1576" data-name="Rectangle 1576" class="cls-7" transform="rotate(-44.716 27.294 -30.878)" d="M0 0h.992v1.003H0z"/>
        <path id="Rectangle_1577" data-name="Rectangle 1577" class="cls-7" transform="translate(31.968 8.971)" d="M0 0h.773v5.834H0z"/>
        <path id="Path_5043" data-name="Path 5043" class="cls-7" d="M37.507 8.32a.46.46 0 0 0-.36.137.484.484 0 0 0-.123.334.464.464 0 0 0 .123.331.56.56 0 0 0 .72 0 .464.464 0 0 0 .122-.331.483.483 0 0 0-.122-.334.46.46 0 0 0-.36-.137"/>
        <path id="Rectangle_1578" data-name="Rectangle 1578" class="cls-7" transform="translate(37.094 10.056)" d="M0 0h.81v4.753H0z"/>
        <path id="Path_5044" data-name="Path 5044" class="cls-7" d="M43.036 8.693a2.473 2.473 0 0 0-1.356-.372 2.427 2.427 0 0 0-1.343.376 2.457 2.457 0 0 0-.905 1.084 3.9 3.9 0 0 0-.322 1.633v.458a3.792 3.792 0 0 0 .332 1.6 2.386 2.386 0 0 0 2.245 1.428 2.485 2.485 0 0 0 1.354-.368 2.387 2.387 0 0 0 .9-1.07 3.948 3.948 0 0 0 .318-1.643v-.4a3.967 3.967 0 0 0-.318-1.643 2.4 2.4 0 0 0-.9-1.078m.378 3.182a2.854 2.854 0 0 1-.46 1.708 1.623 1.623 0 0 1-2.541-.034 2.867 2.867 0 0 1-.464-1.735v-.467a2.8 2.8 0 0 1 .472-1.69 1.627 1.627 0 0 1 2.537 0 2.864 2.864 0 0 1 .456 1.744z"/>
        <path id="Path_5045" data-name="Path 5045" class="cls-7" d="M48.9 11.7a5.277 5.277 0 0 0-1.249-.5 3.257 3.257 0 0 1-1.128-.495.818.818 0 0 1-.331-.658.918.918 0 0 1 .349-.766 1.544 1.544 0 0 1 .971-.274 1.5 1.5 0 0 1 1.041.332 1.16 1.16 0 0 1 .371.912h.847a1.8 1.8 0 0 0-.283-.98 1.925 1.925 0 0 0-.8-.7 2.62 2.62 0 0 0-1.177-.256 2.4 2.4 0 0 0-1.57.495 1.551 1.551 0 0 0-.606 1.252 1.464 1.464 0 0 0 .495 1.122 3.94 3.94 0 0 0 1.579.767 3.791 3.791 0 0 1 1.2.508.872.872 0 0 1 .329.728.883.883 0 0 1-.356.742 1.653 1.653 0 0 1-1.023.272 1.8 1.8 0 0 1-1.145-.337 1.1 1.1 0 0 1-.43-.914h-.846a1.689 1.689 0 0 0 .308 1 2.058 2.058 0 0 0 .882.691 3.022 3.022 0 0 0 1.231.252 2.587 2.587 0 0 0 1.621-.466 1.493 1.493 0 0 0 .6-1.244 1.624 1.624 0 0 0-.216-.851 1.909 1.909 0 0 0-.667-.63"/>
        <path id="Rectangle_1579" data-name="Rectangle 1579" class="cls-7" transform="rotate(-45 41.266 -66.638)" d="M0 0h.993v1.004H0z"/>
        <path id="Rectangle_1580" data-name="Rectangle 1580" class="cls-7" transform="rotate(-45 48.015 -82.498)" d="M0 0h.992v1.004H0z"/>
        <path id="Path_5046" data-name="Path 5046" class="cls-7" d="M73.972 12.6c-.019-.129-.04-.257-.065-.384l-.067-.348a7.959 7.959 0 0 0-.088-.395l-.733.225a10.27 10.27 0 0 1 .152.747c.019.113.036.218.051.323s.027.2.037.3.014.167.014.227a.829.829 0 0 1-.084.409.629.629 0 0 1-.2.221.58.58 0 0 1-.225.092 1.183 1.183 0 0 1-.174.018h-1.125a.923.923 0 0 1-.61-.171.713.713 0 0 1-.209-.549v-1.268h-.773v1.268a.912.912 0 0 1-.069.338.674.674 0 0 1-.156.223.556.556 0 0 1-.213.122.781.781 0 0 1-.237.037.863.863 0 0 1-.611-.182.769.769 0 0 1-.191-.579v-1.227h-.769V13.3a.856.856 0 0 1-.073.386.642.642 0 0 1-.174.223.544.544 0 0 1-.209.1 1.084 1.084 0 0 1-.182.028.867.867 0 0 1-.6-.184.759.759 0 0 1-.192-.577v-1.229h-.774V13.3a1.412 1.412 0 0 1-.031.313.487.487 0 0 1-.12.233.562.562 0 0 1-.252.145 1.487 1.487 0 0 1-.423.049h-1.015c-.027 0-.074 0-.139-.01a.834.834 0 0 1-.209-.053.761.761 0 0 1-.211-.127.47.47 0 0 1-.145-.235c.2-.118.359-.217.479-.3l.2-.139-.1-.679-1.448-.536q-.405-.159-.7-.268a16.592 16.592 0 0 0-.826-.286 3.026 3.026 0 0 0-.206-.057.678.678 0 0 0-.119-.021h-.067q-1.011 0-1.326 1.211l.748.2a1.732 1.732 0 0 1 .131-.362.639.639 0 0 1 .144-.19.317.317 0 0 1 .149-.074.924.924 0 0 1 .145-.012 2.8 2.8 0 0 1 .313.086c.157.049.344.112.563.19s.458.167.721.268.528.2.792.311q-.287.168-.667.358a8.265 8.265 0 0 1-.814.352 7.319 7.319 0 0 1-.9.27 4.11 4.11 0 0 1-.926.108h-1.085a2.278 2.278 0 0 1-.345-.03 1.2 1.2 0 0 1-.734-.428 1.245 1.245 0 0 1-.241-.492c-.019-.063-.041-.143-.065-.238l-.078-.307-.082-.335-.078-.321a10.008 10.008 0 0 1-.063-.264l-.039-.164q-.057-.253-.131-.571t-.171-.726l-.753.16.077.442a3.591 3.591 0 0 0-1.583.875 1.725 1.725 0 0 0-.423.655 1.908 1.908 0 0 0-.1.585 1.764 1.764 0 0 0 .029.314 1.446 1.446 0 0 0 .235.6 1.305 1.305 0 0 0 .473.411 1.424 1.424 0 0 0 .4.151 1.752 1.752 0 0 0 .394.045 1.937 1.937 0 0 0 .365-.032 1.651 1.651 0 0 0 .3-.086 2.252 2.252 0 0 0 .411-.235 1.43 1.43 0 0 0 .313-.313 1.89 1.89 0 0 0 .751.783 2.225 2.225 0 0 0 1.082.273v.007h1.15a4.756 4.756 0 0 0 .812-.071 7.1 7.1 0 0 0 .793-.188q.387-.117.747-.266c.24-.1.465-.2.675-.305a1.315 1.315 0 0 0 .36.483 1.491 1.491 0 0 0 .468.26 1.755 1.755 0 0 0 .559.087H64.6a1.692 1.692 0 0 0 1.166-.368.257.257 0 0 0 .057-.057 1.55 1.55 0 0 0 1.129.425H67a1.535 1.535 0 0 0 .54-.116 1.341 1.341 0 0 0 .471-.326 1.559 1.559 0 0 0 1.186.442 1.531 1.531 0 0 0 .545-.1 1.347 1.347 0 0 0 .454-.288l.061-.066a1.258 1.258 0 0 0 .507.338 1.993 1.993 0 0 0 .7.112h1.129a1.571 1.571 0 0 0 .52-.089 1.384 1.384 0 0 0 .464-.277 1.4 1.4 0 0 0 .335-.47 1.629 1.629 0 0 0 .129-.677 2.985 2.985 0 0 0-.02-.315 10.31 10.31 0 0 0-.05-.375m-18.208.2a.938.938 0 0 1-.6.773.673.673 0 0 1-.167.047 1.069 1.069 0 0 1-.176.014h-.041a1.027 1.027 0 0 1-.213-.022.655.655 0 0 1-.2-.076.739.739 0 0 1-.221-.186.608.608 0 0 1-.123-.288.892.892 0 0 1-.016-.168.878.878 0 0 1 .057-.311 1.194 1.194 0 0 1 .288-.428 2.189 2.189 0 0 1 .514-.361 3.871 3.871 0 0 1 .716-.283l.159.7a1.494 1.494 0 0 1 .025.168 1.673 1.673 0 0 1 .012.171 1.961 1.961 0 0 1-.016.246"/>
        <path id="Path_5047" data-name="Path 5047" class="cls-7" d="m83.042 11.021-.663-.663-.638.663.646.654z"/>
        <path id="Path_5048" data-name="Path 5048" class="cls-7" d="m81.475 11.012-.663-.663-.638.663.646.655z"/>
        <path id="Rectangle_1581" data-name="Rectangle 1581" class="cls-7" transform="rotate(-45 54.534 -101.879)" d="M0 0h.992v1.004H0z"/>
        <path id="Path_5049" data-name="Path 5049" class="cls-7" d="M89.8 10.943a1.4 1.4 0 0 0-.5-.434 1.424 1.424 0 0 0-.654-.151 1.538 1.538 0 0 0-.585.11 1.45 1.45 0 0 0-.815.833 1.727 1.727 0 0 0-.114.627 1.648 1.648 0 0 0 .059.465 1.409 1.409 0 0 0 .152.343 1.085 1.085 0 0 0 .206.244 1.6 1.6 0 0 0 .225.163 1.51 1.51 0 0 0 .279.119 1.852 1.852 0 0 0 .284.067 2.465 2.465 0 0 0 .272.031c.087.006.166.008.237.008h.622a.732.732 0 0 1-.067.223.544.544 0 0 1-.211.215 1.47 1.47 0 0 1-.436.164 3.4 3.4 0 0 1-.738.065h-1.734a1.581 1.581 0 0 1-.172-.014.748.748 0 0 1-.253-.08.649.649 0 0 1-.232-.2.6.6 0 0 1-.1-.365v-1.4h-.773V13.4a.924.924 0 0 1-.027.215.429.429 0 0 1-.118.206.685.685 0 0 1-.27.156 1.506 1.506 0 0 1-.477.061h-4.606a1.1 1.1 0 0 1-.18-.02.609.609 0 0 1-.235-.1.657.657 0 0 1-.2-.234.884.884 0 0 1-.086-.425 1.883 1.883 0 0 1 .031-.317c.02-.121.045-.242.074-.362s.057-.233.085-.338.053-.186.072-.243l-.736-.233a7.563 7.563 0 0 0-.16.581c-.036.148-.065.3-.094.466a2.681 2.681 0 0 0-.043.45 1.827 1.827 0 0 0 .043.411 1.607 1.607 0 0 0 .111.325 1.377 1.377 0 0 0 .149.25 1.331 1.331 0 0 0 .163.18 1.394 1.394 0 0 0 .452.282 1.5 1.5 0 0 0 .547.1h4.643a1.722 1.722 0 0 0 1.256-.433l.049.047.049.043a1.48 1.48 0 0 0 .475.255 1.745 1.745 0 0 0 .479.075v.017h1.816a2.93 2.93 0 0 0 1.571-.347 1.261 1.261 0 0 0 .488-.512 1.549 1.549 0 0 0 .162-.72v-.564a4.237 4.237 0 0 0-.106-.994 2.008 2.008 0 0 0-.327-.728m-.959 1.65a2.393 2.393 0 0 1-.4-.03.867.867 0 0 1-.29-.1.713.713 0 0 1-.1-.061.5.5 0 0 1-.093-.1.473.473 0 0 1-.074-.151.785.785 0 0 1-.029-.228.832.832 0 0 1 .072-.36.727.727 0 0 1 .184-.247.756.756 0 0 1 .253-.143.862.862 0 0 1 .277-.047.639.639 0 0 1 .54.261 1.553 1.553 0 0 1 .206.495 3.152 3.152 0 0 1 .084.708z"/>
        <path id="Path_5050" data-name="Path 5050" class="cls-7" d="m94.848 16.367.639.663.663-.663-.656-.654z"/>
        <path id="Path_5051" data-name="Path 5051" class="cls-7" d="m93.281 16.375.638.663.663-.663-.655-.655z"/>
        <path id="Path_5052" data-name="Path 5052" class="cls-7" d="M95.632 14.442a1.4 1.4 0 0 0 .335-.47 1.632 1.632 0 0 0 .133-.672 2.762 2.762 0 0 0-.021-.315c-.013-.121-.03-.245-.048-.375s-.041-.257-.066-.384l-.067-.348c-.02-.105-.039-.193-.056-.264l-.032-.131-.733.225a7.416 7.416 0 0 1 .094.434l.058.313a9.653 9.653 0 0 1 .088.617c.01.094.014.167.014.228a.831.831 0 0 1-.084.409.626.626 0 0 1-.2.22.566.566 0 0 1-.226.093 1.172 1.172 0 0 1-.173.018h-1.522a3.027 3.027 0 0 1-.579-.047.483.483 0 0 1-.29-.164.643.643 0 0 1-.119-.341 5.908 5.908 0 0 1-.023-.577V8.97h-.773v3.936c0 .213.007.406.021.581a2.18 2.18 0 0 0 .085.473 1.231 1.231 0 0 0 .183.368.9.9 0 0 0 .311.261 1.677 1.677 0 0 0 .474.16 3.618 3.618 0 0 0 .538.052v.007h1.694a1.566 1.566 0 0 0 .519-.09 1.36 1.36 0 0 0 .465-.276"/>
        <path id="Path_5053" data-name="Path 5053" class="cls-7" d="M98.919 14.6a2.68 2.68 0 0 1-.1.769 1.242 1.242 0 0 1-.3.532 1.216 1.216 0 0 1-.51.309 2.37 2.37 0 0 1-.731.1h-.564v.773h.564a2.94 2.94 0 0 0 1.045-.17 1.966 1.966 0 0 0 .755-.488 2.045 2.045 0 0 0 .456-.78 3.273 3.273 0 0 0 .153-1.045v-2.557h-.772z"/>
        <path id="Path_5054" data-name="Path 5054" class="cls-7" d="M104.184 13.426a1.626 1.626 0 0 0-.123-.341 2.6 2.6 0 0 0-.184-.326l-.458-.687c-.131-.2-.246-.368-.343-.516s-.182-.273-.25-.378-.128-.2-.18-.274-.1-.146-.135-.2l-.11-.169-.655.425 1.481 2.238a1.438 1.438 0 0 1 .172.321.685.685 0 0 1 .041.194.246.246 0 0 1-.017.091.366.366 0 0 1-.194.153 1.611 1.611 0 0 1-.391.1 2.676 2.676 0 0 1-.336.031h-.172c-.132 0-.266-.007-.4-.02a3 3 0 0 1-.442-.072 1.392 1.392 0 0 1-.352-.133l-.339-.192-.384.674.338.193a1.8 1.8 0 0 0 .338.153 2.808 2.808 0 0 0 .389.1 3.949 3.949 0 0 0 .415.057c.142.012.282.018.422.018.114 0 .224 0 .331-.012s.207-.019.3-.033a1.393 1.393 0 0 0 1.186-.712.756.756 0 0 0 .082-.264v-.112a1.383 1.383 0 0 0-.037-.311"/>
    </g>
</svg>
