<svg xmlns="http://www.w3.org/2000/svg" id="Group_3122" width="54.65" height="64.07" viewBox="0 0 54.65 64.07">
    <defs>
        <style>
            .cls-1{fill:#a4c639}
        </style>
    </defs>
    <g id="Group_1">
        <path id="Path_1" d="M41.117 164.715h-.164a3.83 3.83 0 0 0-3.819 3.819v16.629a3.827 3.827 0 0 0 3.819 3.822h.167a3.83 3.83 0 0 0 3.819-3.822v-16.629a3.836 3.836 0 0 0-3.822-3.819z" class="cls-1" transform="translate(-37.134 -143.823)"/>
        <path id="Path_2" d="M113.085 195.782a3.515 3.515 0 0 0 3.51 3.5h3.751v8.982a3.831 3.831 0 0 0 3.819 3.825h.164a3.832 3.832 0 0 0 3.825-3.825v-8.982h5.246v8.982a3.836 3.836 0 0 0 3.825 3.825h.161a3.83 3.83 0 0 0 3.822-3.825v-8.982h3.754a3.514 3.514 0 0 0 3.508-3.5v-26.257h-35.385z" class="cls-1" transform="translate(-103.452 -148.023)"/>
        <path id="Path_3" d="M138.778 5.579l2.979-4.6a.633.633 0 0 0-.186-.879.628.628 0 0 0-.871.19l-3.089 4.758a20.424 20.424 0 0 0-15.28 0L119.243.29a.635.635 0 0 0-1.067.689l2.982 4.6c-5.376 2.635-9 7.6-9 13.3 0 .35.022.695.052 1.037h35.52c.03-.342.049-.687.049-1.037 0-5.7-3.628-10.665-9.001-13.3zm-17.045 8.235a1.706 1.706 0 1 1 1.71-1.707 1.707 1.707 0 0 1-1.71 1.707zm16.468 0a1.706 1.706 0 1 1 1.707-1.707 1.707 1.707 0 0 1-1.708 1.707z" class="cls-1" transform="translate(-102.641)"/>
        <path id="Path_4" d="M410.452 164.715h-.159a3.835 3.835 0 0 0-3.825 3.819v16.629a3.833 3.833 0 0 0 3.825 3.822h.162a3.829 3.829 0 0 0 3.819-3.822v-16.629a3.832 3.832 0 0 0-3.822-3.819z" class="cls-1" transform="translate(-359.624 -143.823)"/>
    </g>
</svg>
