<svg id="Group_3464" data-name="Group 3464" xmlns="http://www.w3.org/2000/svg" width="188" height="56">
    <defs>
        <clipPath id="clip-path">
            <path id="Rectangle_1548" data-name="Rectangle 1548" style="fill:none" d="M0 0h188v56H0z"/>
        </clipPath>
        <style>
            .cls-4{fill:#fff}
        </style>
    </defs>
    <g id="Group_3463" data-name="Group 3463" style="clip-path:url(#clip-path)">
        <rect id="Rectangle_1545" data-name="Rectangle 1545" width="186" height="54" rx="9" transform="translate(1 1)"/>
        <path id="Path_4872" data-name="Path 4872" d="M178 2a8.009 8.009 0 0 1 8 8v36a8.009 8.009 0 0 1-8 8H10a8.009 8.009 0 0 1-8-8V10a8.009 8.009 0 0 1 8-8h168m0-2H10A10 10 0 0 0 0 10v36a10 10 0 0 0 10 10h168a10 10 0 0 0 10-10V10a10 10 0 0 0-10-10" style="fill:#d2d2d5"/>
        <path id="Path_4873" data-name="Path 4873" class="cls-4" d="M38.437 27.4a7.719 7.719 0 0 1 3.7-6.6 8.062 8.062 0 0 0-6.3-3.4c-2.7-.3-5.3 1.6-6.6 1.6-1.4 0-3.5-1.6-5.7-1.5a8.3 8.3 0 0 0-7.1 4.3c-3.1 5.3-.8 13.1 2.2 17.4 1.5 2.1 3.2 4.5 5.4 4.4s3-1.4 5.7-1.4c2.6 0 3.4 1.4 5.7 1.4 2.4 0 3.9-2.1 5.3-4.2a15.947 15.947 0 0 0 2.4-4.9 7.723 7.723 0 0 1-4.7-7.1"/>
        <path id="Path_4874" data-name="Path 4874" class="cls-4" d="M34.037 14.6a7.79 7.79 0 0 0 1.8-5.5 7.677 7.677 0 0 0-5.1 2.6 7.453 7.453 0 0 0-1.8 5.3 6.555 6.555 0 0 0 5.1-2.4"/>
        <path id="Path_4875" data-name="Path 4875" class="cls-4" d="M66.237 38.3h-7.5l-1.8 5.3h-3.2l7.1-19.7h3.3l7.1 19.7h-3.2zm-6.7-2.4h6l-2.9-8.7h-.1z"/>
        <path id="Path_4876" data-name="Path 4876" class="cls-4" d="M86.637 36.5c0 4.5-2.4 7.3-6 7.3a4.85 4.85 0 0 1-4.5-2.5h-.1v7.1h-3V29.3h2.9v2.4h.1a5 5 0 0 1 4.6-2.5c3.6-.1 6 2.8 6 7.3m-3 0c0-2.9-1.5-4.8-3.8-4.8s-3.8 2-3.8 4.8c0 2.9 1.5 4.8 3.8 4.8s3.8-1.9 3.8-4.8"/>
        <path id="Path_4877" data-name="Path 4877" class="cls-4" d="M102.537 36.5c0 4.5-2.4 7.3-6 7.3a4.85 4.85 0 0 1-4.5-2.5h-.1v7.1h-3V29.3h2.9v2.4h.1a5 5 0 0 1 4.6-2.5c3.6-.1 6 2.8 6 7.3m-3.1 0c0-2.9-1.5-4.8-3.8-4.8s-3.8 2-3.8 4.8c0 2.9 1.5 4.8 3.8 4.8s3.8-1.9 3.8-4.8"/>
        <path id="Path_4878" data-name="Path 4878" class="cls-4" d="M112.937 38.1c.2 2 2.1 3.2 4.7 3.2 2.5 0 4.3-1.3 4.3-3 0-1.5-1.1-2.4-3.6-3.1l-2.6-.6c-3.6-.9-5.3-2.6-5.3-5.3 0-3.4 3-5.7 7.2-5.7s7 2.3 7.1 5.7h-3c-.2-2-1.8-3.2-4.2-3.2s-4 1.2-4 3c0 1.4 1 2.2 3.6 2.8l2.2.5c4 1 5.7 2.6 5.7 5.5 0 3.7-2.9 6-7.6 6-4.4 0-7.3-2.3-7.5-5.8z"/>
        <path id="Path_4879" data-name="Path 4879" class="cls-4" d="M131.437 25.9v3.4h2.7v2.3h-2.7v7.9c0 1.2.5 1.8 1.8 1.8a3.751 3.751 0 0 0 1-.1v2.3a8.6 8.6 0 0 1-1.6.1c-2.9 0-4-1.1-4-3.9v-8.2h-2.1v-2.3h2.1v-3.4h2.8z"/>
        <path id="Path_4880" data-name="Path 4880" class="cls-4" d="M135.737 36.5c0-4.5 2.7-7.4 6.8-7.4 4.2 0 6.8 2.8 6.8 7.4 0 4.5-2.6 7.4-6.8 7.4-4.1-.1-6.8-2.9-6.8-7.4m10.7 0c0-3.1-1.4-4.9-3.8-4.9s-3.8 1.8-3.8 4.9 1.4 4.9 3.8 4.9 3.8-1.8 3.8-4.9"/>
        <path id="Path_4881" data-name="Path 4881" class="cls-4" d="M151.837 29.3h2.8v2.4h.1a3.362 3.362 0 0 1 3.5-2.6 3.4 3.4 0 0 1 1 .1V32a5.852 5.852 0 0 0-1.3-.2 3.005 3.005 0 0 0-3.1 2.9v9h-3z"/>
        <path id="Path_4882" data-name="Path 4882" class="cls-4" d="M172.837 39.4c-.4 2.6-2.9 4.4-6.2 4.4-4.2 0-6.8-2.8-6.8-7.3s2.6-7.4 6.7-7.4c4 0 6.5 2.7 6.5 7.1v1h-10.2v.2a3.729 3.729 0 0 0 3.4 4.1h.5a3.3 3.3 0 0 0 3.3-2zm-10-4.3h7.2a3.459 3.459 0 0 0-3.3-3.6h-.3a3.65 3.65 0 0 0-3.6 3.6"/>
        <path id="Path_4883" data-name="Path 4883" class="cls-4" d="M133.737 15.4c0-.2-.1-.4-.1-.6a4.331 4.331 0 0 0-.1-.5 5.637 5.637 0 0 0-.4-1.2l-1.5.5c.1.2.1.4.2.6a1.854 1.854 0 0 1 .2.7 3.091 3.091 0 0 0 .2.8 1.952 1.952 0 0 1 .1.7 1.483 1.483 0 0 1-.1.7 2.507 2.507 0 0 1-.4.7c-.2.2-.3.5-.6.7-.2.2-.5.4-.7.6-.3.2-.5.4-.8.6s-.6.3-.9.5l.7 1.4c.4-.2.7-.4 1.1-.6a8.648 8.648 0 0 0 1-.7 6.47 6.47 0 0 0 .9-.8 5.5 5.5 0 0 0 .7-.9 4.672 4.672 0 0 0 .5-1 3.6 3.6 0 0 0 .2-1.1V16a.735.735 0 0 1-.2-.6"/>
        <path id="Rectangle_1546" data-name="Rectangle 1546" class="cls-4" transform="rotate(-45 78.356 -152.841)" d="M0 0h1.6v1.7H0z"/>
        <path id="Path_4884" data-name="Path 4884" class="cls-4" d="M134.937 8q.15 1.95.3 4.5c0 1.3 0 2.8-.1 4.7l1.6-.2c.1-1.3.1-3 .1-5.1a33.36 33.36 0 0 0-.3-4.3z"/>
        <path id="Path_4885" data-name="Path 4885" class="cls-4" d="M147.237 13a4.44 4.44 0 0 0-.8-1.1 4.74 4.74 0 0 0-1-1c-.4-.3-.7-.6-1.1-.9l-.9 1.3c.2.1.4.3.6.4a4.349 4.349 0 0 0 .7.6 4.35 4.35 0 0 1 .6.7 3.039 3.039 0 0 1 .5.7 1.612 1.612 0 0 1 .4.7 1.268 1.268 0 0 1 .1.6.52.52 0 0 1-.2.4.758.758 0 0 1-.4.2c-.2 0-.3.1-.5.1h-.4a1.268 1.268 0 0 1-.6-.1c-.2-.1-.5-.1-.7-.2s-.5-.2-.7-.3l-.6-.3-.6 1.5a4.349 4.349 0 0 0 .7.4 6.891 6.891 0 0 0 .8.3 2.354 2.354 0 0 0 .8.2 2.2 2.2 0 0 0 .8.1 3.178 3.178 0 0 0 1.4-.2 3.328 3.328 0 0 0 1-.6 1.6 1.6 0 0 0 .5-1 2.437 2.437 0 0 0 0-1.2 2.836 2.836 0 0 0-.4-1.3"/>
        <path id="Rectangle_1547" data-name="Rectangle 1547" class="cls-4" transform="rotate(-45 91.13 -187.706)" d="M0 0h1.6v1.7H0z"/>
        <path id="Path_4886" data-name="Path 4886" class="cls-4" d="M162.237 13c-.1-.3-.2-.5-.3-.8a4.873 4.873 0 0 0-.3-.7l-1.4.7a4.875 4.875 0 0 1 .3.7c.1.2.2.5.3.7s.1.4.2.6a.756.756 0 0 1 .1.4c0 .2 0 .3-.1.4s-.1.2-.3.3l-.4.2a4.331 4.331 0 0 1-.5.1h-1.4a.749.749 0 0 1-.5-.1c-.1-.1-.2-.1-.3-.2a.367.367 0 0 1-.1-.3V9.2c0-.6-.1-1.1-.1-1.6l-1.5.3c0 .4.1.9.1 1.4v5.9c0 .1 0 .2-.1.2a.1.1 0 0 1-.1.1h-1.5c0-.3-.1-.6-.1-.9-.1-.3-.1-.6-.2-.8a2.994 2.994 0 0 0-.4-.8 2.651 2.651 0 0 0-.5-.6 2.112 2.112 0 0 0-1.7-.8 1.884 1.884 0 0 0-.8.2c-.3.1-.5.4-.7.6a2.186 2.186 0 0 0-.3.5 1.421 1.421 0 0 0-.2.6c-.1.2-.1.4-.2.6 0 .2-.1.4-.1.6a2.2 2.2 0 0 0 .1.8c.1.2.2.5.3.7a1.456 1.456 0 0 0 .9.6 5.274 5.274 0 0 0 1.2.3h1.2a2.01 2.01 0 0 1-.4.8 3.631 3.631 0 0 1-.9.8c-.4.2-.8.5-1.3.7a7.494 7.494 0 0 1-1.6.5l.3 1.6a12.09 12.09 0 0 0 1.8-.5 3.765 3.765 0 0 0 1.5-.9 4.894 4.894 0 0 0 1.2-1.3 4.594 4.594 0 0 0 .7-1.6h1.6a.6.6 0 0 0 .4-.1.758.758 0 0 0 .4-.2 1.38 1.38 0 0 1 .4-.3 1.794 1.794 0 0 0 .7.5 3.083 3.083 0 0 0 1 .1h1.5c.2 0 .4-.1.7-.1a3.128 3.128 0 0 0 1-.5 2.178 2.178 0 0 0 .7-.9 3.6 3.6 0 0 0 .2-1.1 2.2 2.2 0 0 0-.1-.8 2.994 2.994 0 0 1-.4-.8m-9.7 2.6h-.9a.9.9 0 0 1-.5-.1.52.52 0 0 1-.4-.2l-.3-.3a.6.6 0 0 1-.1-.4.9.9 0 0 1 .1-.5c.1-.2.2-.3.3-.5.1-.1.2-.3.3-.3a.5.5 0 0 1 .6 0c.1.1.2.1.3.2a1.38 1.38 0 0 1 .3.4c.1.2.2.3.3.5a1.421 1.421 0 0 1 .2.6 1.268 1.268 0 0 1 .1.6z"/>
        <path id="Path_4887" data-name="Path 4887" class="cls-4" d="M163.637 8q.15 1.95.3 4.5c0 1.3 0 2.8-.1 4.7l1.6-.2c.1-1.3.1-3 .1-5.1a33.36 33.36 0 0 0-.3-4.3z"/>
        <path id="Path_4888" data-name="Path 4888" class="cls-4" d="M172.537 14.2a6.118 6.118 0 0 0-.5-1.2 4.44 4.44 0 0 0-.8-1.1 4.741 4.741 0 0 0-1-1c-.4-.3-.7-.6-1.1-.9l-.9 1.3c.2.1.4.3.6.4a4.349 4.349 0 0 0 .7.6 4.349 4.349 0 0 1 .6.7 3.038 3.038 0 0 1 .5.7 1.612 1.612 0 0 1 .4.7 1.268 1.268 0 0 1 .1.6.52.52 0 0 1-.2.4.758.758 0 0 1-.4.2c-.2 0-.3.1-.5.1h-.4a1.268 1.268 0 0 1-.6-.1c-.2-.1-.5-.1-.7-.2s-.5-.2-.7-.3l-.6-.3-.6 1.5a4.348 4.348 0 0 0 .7.4 6.891 6.891 0 0 0 .8.3 2.354 2.354 0 0 0 .8.2 2.2 2.2 0 0 0 .8.1 3.178 3.178 0 0 0 1.4-.2 3.328 3.328 0 0 0 1-.6 1.6 1.6 0 0 0 .5-1 2.769 2.769 0 0 0 .1-1.3"/>
    </g>
</svg>
