<svg xmlns="http://www.w3.org/2000/svg" width="83.252" height="64" viewBox="0 0 83.252 64">
    <defs>
        <clipPath id="clip-path">
            <path id="Rectangle_1465" d="M0 0H83.252V64H0z" class="cls-1"/>
        </clipPath>
        <style>
            .cls-1{fill:#28c5cc}
        </style>
    </defs>
    <g id="Group_3168">
        <g id="Group_3167" clip-path="url(#clip-path)">
            <path id="Path_4576" d="M83.247 58.027v-.037a1.248 1.248 0 0 0-.02-.142v-.013a1.217 1.217 0 0 0-.036-.124l-.011-.032q-.022-.056-.048-.108l-.007-.019L76.6 44.687V2.361A2.362 2.362 0 0 0 74.238 0H9.015a2.363 2.363 0 0 0-2.361 2.36v42.325L.132 57.551l-.009.019c-.016.035-.031.071-.045.107l-.012.033a1.214 1.214 0 0 0-.035.124v.013a.978.978 0 0 0-.02.142v.036A.728.728 0 0 0 0 58.1v3.1A2.806 2.806 0 0 0 2.8 64h77.648a2.807 2.807 0 0 0 2.8-2.8v-3.1a.686.686 0 0 0 0-.075M10.042 2.44H73.21a.948.948 0 0 1 .949.947v39.424a.948.948 0 0 1-.949.947H10.042a.948.948 0 0 1-.949-.947V3.387a.947.947 0 0 1 .949-.947M8.623 46.2H74.63l5.417 10.685H53.253l-1.345-4.875a2.3 2.3 0 0 0-2.214-1.686H33.558a2.3 2.3 0 0 0-2.216 1.686L30 56.882H3.205zm42.1 10.685H32.529l1.137-4.122h15.92zm30.09 4.315a.367.367 0 0 1-.365.365H2.8a.367.367 0 0 1-.365-.365v-1.878h78.378z" class="cls-1" transform="translate(0 .001)"/>
            <path id="Path_4577" d="M67.02 38.551h-56.8V5.1h56.8zm.6-34.786h-58a.734.734 0 0 0-.733.735v34.653a.735.735 0 0 0 .733.736h58a.735.735 0 0 0 .736-.736V4.5a.734.734 0 0 0-.736-.735" class="cls-1" transform="translate(3.003 1.273)"/>
        </g>
    </g>
</svg>
