<svg xmlns="http://www.w3.org/2000/svg" width="188" height="56">
    <defs>
        <style>
            .cls-1{fill:#fff}.cls-5{fill:#141417}
        </style>
    </defs>
    <g id="Group_3664" data-name="Group 3664" transform="translate(-1313 -572)">
        <rect id="Rectangle_1563" data-name="Rectangle 1563" class="cls-1" width="186" height="54" rx="9" transform="translate(1314 573)"/>
        <path id="Path_4936" data-name="Path 4936" d="M178 2a8.009 8.009 0 0 1 8 8v36a8.009 8.009 0 0 1-8 8H10a8.009 8.009 0 0 1-8-8V10a8.009 8.009 0 0 1 8-8h168m0-2H10A10 10 0 0 0 0 10v36a10 10 0 0 0 10 10h168a10 10 0 0 0 10-10V10a10 10 0 0 0-10-10" transform="translate(1313 572)" style="fill:#d2d2d5"/>
        <g id="Group_3660" data-name="Group 3660">
            <path id="Path_4937" data-name="Path 4937" d="M173.155 48h-30a5 5 0 0 1-5-5V13a5 5 0 0 1 5-5h30a5 5 0 0 1 5 5v30a5 5 0 0 1-5 5" transform="translate(1313 572)" style="fill:#28c5cc"/>
            <path id="Path_4938" data-name="Path 4938" d="M151.3 32.921a3.059 3.059 0 0 1 .439-.012h16.563a2.012 2.012 0 0 1 .28 0c.235.033.322-.072.366-.3a4.867 4.867 0 0 1 .5-1.343c.041-.078.114-.152.079-.267a.609.609 0 0 0-.377-.046c-5.894 0-11.789.011-17.683-.011a2.678 2.678 0 0 0-2.7 2.244 2.639 2.639 0 0 0 1.694 2.9 2.7 2.7 0 0 0 .977.17h17.6c.106 0 .211-.009.337-.015a1.246 1.246 0 0 0-.136-.422 5.08 5.08 0 0 1-.35-1.185c-.051-.368-.062-.367-.421-.37h-16.923a.811.811 0 0 1-.539-.1.7.7 0 0 1-.272-.741.658.658 0 0 1 .558-.5" transform="translate(1313 572)" style="fill:#d2d2d2"/>
            <path id="Path_4939" data-name="Path 4939" class="cls-1" d="M166.3 26.049c.106 0 .847-.106 1.107-.162a5.024 5.024 0 0 0-1.321-9.9 4.813 4.813 0 0 0-3.049 1.128 4.923 4.923 0 0 0-1.842 4.1 4.722 4.722 0 0 0 1.005 2.834c.054.07.152.127.118.267-.3 0-2.053.016-3.038.024a.636.636 0 0 0-.632.637v1.173c1.374 0 3.937-.05 5.31-.059.781-.006 1.561-.038 2.342-.042m-3.385-4.986a3.307 3.307 0 1 1 3.342 3.25 3.354 3.354 0 0 1-3.342-3.25" transform="translate(1313 572)"/>
            <path id="Path_4940" data-name="Path 4940" class="cls-1" d="M148.684 25.941c.261.057 1 .161 1.107.162.781 0 1.561.037 2.342.042 1.373.01 3.936.056 5.31.06v-1.186a.629.629 0 0 0-.624-.63c-.983-.007-2.747-.023-3.045-.023-.034-.141.063-.2.118-.267a4.732 4.732 0 0 0 1-2.834 4.923 4.923 0 0 0-1.842-4.1 4.813 4.813 0 0 0-3.048-1.128 5.024 5.024 0 0 0-1.322 9.905m1.253-8.182a3.3 3.3 0 1 1-3.375 3.256 3.354 3.354 0 0 1 3.375-3.256" transform="translate(1313 572)"/>
            <path id="Path_4941" data-name="Path 4941" class="cls-1" d="m170.249 37.83-18.79.026a4.308 4.308 0 0 1-3.362-1.479 3.958 3.958 0 0 1 .644-5.878 4.568 4.568 0 0 1 2.841-.888c3.625.014 7.251 0 10.877 0h7.79a1.058 1.058 0 0 0 1.084-.853 1.073 1.073 0 0 0-.735-1.245 3.368 3.368 0 0 0-.507-.064h-18.516a6.63 6.63 0 0 0-3.2.73 5.967 5.967 0 0 0-3.455 5.744c0 4.95 3.9 6.088 6.537 6.088 5.973 0 18.648.008 18.834 0a1.094 1.094 0 1 0-.044-2.187" transform="translate(1313 572)"/>
        </g>
        <path id="Path_4942" data-name="Path 4942" class="cls-5" d="m67.571 23.646.851.884.883-.884-.872-.873z" transform="translate(1313 572)"/>
        <path id="Path_4943" data-name="Path 4943" class="cls-5" d="m65.481 23.657.851.884.884-.884-.873-.873z" transform="translate(1313 572)"/>
        <path id="Path_4944" data-name="Path 4944" class="cls-5" d="M76.074 21.535h2.253a2.279 2.279 0 0 0 1.68-.567 1.389 1.389 0 0 0 .608.426 2.506 2.506 0 0 0 .875.141h1.146a2.262 2.262 0 0 0 1.555-.49.426.426 0 0 0 .076-.077 2.057 2.057 0 0 0 1.505.567h.071a2.055 2.055 0 0 0 .72-.155 1.78 1.78 0 0 0 .628-.433 2.081 2.081 0 0 0 1.581.588 2.02 2.02 0 0 0 .726-.128 1.768 1.768 0 0 0 .6-.384l.082-.088h.006a1.692 1.692 0 0 0 .676.451 2.651 2.651 0 0 0 .927.149h.747a1.437 1.437 0 0 0 1.151-.529q.339.186.619.333a5.558 5.558 0 0 0 .538.248 3.253 3.253 0 0 0 .5.155 2.325 2.325 0 0 0 .513.055 2.008 2.008 0 0 0 .3-.027 1.449 1.449 0 0 0 .363-.109 1.48 1.48 0 0 0 .371-.24 1.588 1.588 0 0 0 .33-.417 2.479 2.479 0 0 0 .237-.641 4.018 4.018 0 0 0 .09-.911 3.363 3.363 0 0 0-.128-.927 2.362 2.362 0 0 0-.391-.791 1.919 1.919 0 0 0-.657-.549 2 2 0 0 0-.93-.2 1.84 1.84 0 0 0-.788.153 1.744 1.744 0 0 0-.55.4 2.178 2.178 0 0 0-.374.562 5.614 5.614 0 0 0-.254.648c-.071.223-.133.439-.188.65a4.774 4.774 0 0 1-.18.561 1.393 1.393 0 0 1-.231.4.44.44 0 0 1-.342.153h-.747a1.229 1.229 0 0 1-.813-.229.946.946 0 0 1-.278-.731v-1.698h-1.025v1.691a1.2 1.2 0 0 1-.093.449.861.861 0 0 1-.207.3.733.733 0 0 1-.283.163 1.059 1.059 0 0 1-.317.05 1.149 1.149 0 0 1-.815-.243 1.028 1.028 0 0 1-.254-.772v-1.638h-1.025v1.663a1.139 1.139 0 0 1-.1.516.853.853 0 0 1-.231.3.715.715 0 0 1-.278.137 1.685 1.685 0 0 1-.243.038 1.162 1.162 0 0 1-.8-.246 1.01 1.01 0 0 1-.256-.769v-1.639h-1.032v1.663a1.924 1.924 0 0 1-.041.417.65.65 0 0 1-.161.311.744.744 0 0 1-.336.194 1.975 1.975 0 0 1-.564.066H81.49c-.028 0-.072 0-.13-.006a1.16 1.16 0 0 1-.2-.032 1.384 1.384 0 0 1-.226-.082.735.735 0 0 1-.21-.15.8.8 0 0 1-.152-.235.841.841 0 0 1-.063-.343v-1.809h-1.026v1.844a1.184 1.184 0 0 1-.035.275.556.556 0 0 1-.153.262.908.908 0 0 1-.346.2 1.989 1.989 0 0 1-.622.079h-2.253c-.319 0-.618-.012-.894-.033a2.118 2.118 0 0 0 .455-.753 2.836 2.836 0 0 0 .15-.955 2 2 0 0 0-.136-.728 1.9 1.9 0 0 0-.393-.622 1.938 1.938 0 0 0-.627-.433 2.06 2.06 0 0 0-.84-.164 2.271 2.271 0 0 0-.837.153 2.183 2.183 0 0 0-.682.42 1.968 1.968 0 0 0-.458.622 1.747 1.747 0 0 0-.167.752 2.723 2.723 0 0 0 .158.947 2.183 2.183 0 0 0 .48.761c-.312.021-.667.033-1.063.033h-1.364c-.029 0-.073 0-.131-.006a1.15 1.15 0 0 1-.2-.032 1.393 1.393 0 0 1-.227-.082.73.73 0 0 1-.209-.15.806.806 0 0 1-.152-.238.841.841 0 0 1-.062-.343v-1.809h-1.026v1.844a1.185 1.185 0 0 1-.035.275.556.556 0 0 1-.153.262.908.908 0 0 1-.346.2 1.994 1.994 0 0 1-.622.079h-1.8a1.3 1.3 0 0 1-.254-.036 1.031 1.031 0 0 1-.33-.136.932.932 0 0 1-.286-.287.861.861 0 0 1-.123-.485c0-.051.006-.105.008-.161s0-.116 0-.177a3.2 3.2 0 0 0-.136-.928 2.427 2.427 0 0 0-.4-.785 2.009 2.009 0 0 0-.655-.543 1.907 1.907 0 0 0-.9-.2 1.75 1.75 0 0 0-1.669 1.063 3.781 3.781 0 0 0-.265.712 9.458 9.458 0 0 0-.188.887 6.812 6.812 0 0 1-.325-.169l-.308-.17-.327-.179-.993.578v5.651h1.026V20.1q.207.114.537.286c.22.114.455.234.706.357q.563.279.944.442t.633.251a2.883 2.883 0 0 0 .4.114 1.308 1.308 0 0 0 .24.028 2.253 2.253 0 0 0 .259-.019 1.4 1.4 0 0 0 .313-.082 1.561 1.561 0 0 0 .328-.175 1.414 1.414 0 0 0 .311-.3 1.987 1.987 0 0 0 .635.4 2.223 2.223 0 0 0 .761.132h1.855a2.282 2.282 0 0 0 1.68-.567 1.383 1.383 0 0 0 .608.426 2.506 2.506 0 0 0 .875.141h1.367a13.874 13.874 0 0 0 1.418-.065 6.974 6.974 0 0 0 1.1-.2 8.851 8.851 0 0 0 2.334.261M94.3 19.585c.044-.169.087-.33.131-.485s.091-.3.142-.431a1.316 1.316 0 0 1 .19-.346.818.818 0 0 1 .281-.232.88.88 0 0 1 .406-.085.957.957 0 0 1 .437.091 1.012 1.012 0 0 1 .306.231 1.189 1.189 0 0 1 .2.311 1.864 1.864 0 0 1 .112.33 1.891 1.891 0 0 1 .049.292c.008.087.011.151.011.191a3.324 3.324 0 0 1-.04.554 1.721 1.721 0 0 1-.105.37.714.714 0 0 1-.141.224.578.578 0 0 1-.159.117.408.408 0 0 1-.147.044c-.045 0-.08.005-.106.005a1.316 1.316 0 0 1-.357-.051 3.257 3.257 0 0 1-.391-.142q-.206-.09-.446-.216c-.16-.083-.335-.173-.524-.267q.087-.25.153-.505m-31.451.4a1.025 1.025 0 0 1-.2.39.45.45 0 0 1-.235.145 1.122 1.122 0 0 1-.177.022.84.84 0 0 1-.09-.022c-.053-.014-.141-.047-.265-.095s-.288-.119-.493-.208-.463-.21-.772-.363a8.453 8.453 0 0 1 .226-1.085 2.355 2.355 0 0 1 .27-.627.722.722 0 0 1 .325-.287 1.086 1.086 0 0 1 .39-.068.955.955 0 0 1 .431.09 1.019 1.019 0 0 1 .305.229 1.136 1.136 0 0 1 .2.308 2.013 2.013 0 0 1 .112.327 2.33 2.33 0 0 1 .052.29c.009.087.013.151.013.191a2.551 2.551 0 0 1-.087.763m10.08-.327a1.243 1.243 0 0 1-.221-.384 1.336 1.336 0 0 1-.073-.445v-.066a.725.725 0 0 1 .092-.354.93.93 0 0 1 .254-.292 1.361 1.361 0 0 1 .81-.27.949.949 0 0 1 .388.082 1.216 1.216 0 0 1 .329.213 1.039 1.039 0 0 1 .23.294.713.713 0 0 1 .084.327 1.54 1.54 0 0 1-.077.508 1.284 1.284 0 0 1-.215.4 1.485 1.485 0 0 1-.335.305 1.981 1.981 0 0 1-.442.219 2.409 2.409 0 0 1-.467-.227 1.532 1.532 0 0 1-.357-.308" transform="translate(1313 572)"/>
        <path id="Path_4945" data-name="Path 4945" class="cls-5" d="m75.567 14.641-.884-.884-.85.884.861.873z" transform="translate(1313 572)"/>
        <path id="Path_4946" data-name="Path 4946" class="cls-5" d="m73.478 14.63-.884-.884-.851.884.862.873z" transform="translate(1313 572)"/>
        <path id="Path_4947" data-name="Path 4947" class="cls-5" d="m81.55 15.645-.884-.883-.85.883.861.873z" transform="translate(1313 572)"/>
        <path id="Path_4948" data-name="Path 4948" class="cls-5" d="m79.461 15.634-.884-.884-.851.884.862.873z" transform="translate(1313 572)"/>
        <path id="Path_4949" data-name="Path 4949" class="cls-5" d="M103.4 21.38a3.815 3.815 0 0 0 .518.136 5.219 5.219 0 0 0 .553.076 6.302 6.302 0 0 0 1.004.009c.141-.01.277-.026.4-.044a1.858 1.858 0 0 0 1.582-.949 1.029 1.029 0 0 0 .109-.352c0-.085.005-.135.005-.15a1.774 1.774 0 0 0-.049-.414 2.267 2.267 0 0 0-.163-.456 3.939 3.939 0 0 0-.246-.434l-.611-.916-.458-.687q-.2-.294-.333-.5c-.09-.14-.17-.261-.24-.365s-.129-.195-.179-.273l-.148-.226-.873.567 1.975 2.983a1.916 1.916 0 0 1 .229.429.915.915 0 0 1 .055.259.317.317 0 0 1-.023.12.487.487 0 0 1-.258.2 2.137 2.137 0 0 1-.521.139 3.583 3.583 0 0 1-.447.04h-.23a5.319 5.319 0 0 1-.534-.027 3.952 3.952 0 0 1-.59-.1 1.87 1.87 0 0 1-.469-.177l-.453-.257-.512.9.453.256a2.417 2.417 0 0 0 .45.2" transform="translate(1313 572)"/>
        <path id="Path_4950" data-name="Path 4950" class="cls-5" d="M109.414 21.045a1.993 1.993 0 0 0 .712.376 2.742 2.742 0 0 0 .775.115h1a2.525 2.525 0 0 1-.134.883 1.351 1.351 0 0 1-.417.584 2.168 2.168 0 0 1-.89.387 6.445 6.445 0 0 1-1.385.126v1.03a7.061 7.061 0 0 0 1.732-.182 3.186 3.186 0 0 0 1.193-.559 2.243 2.243 0 0 0 .7-.936 3.521 3.521 0 0 0 .227-1.333h.818v-.008a2.67 2.67 0 0 0 1.908-.636 2.118 2.118 0 0 0 .708.491 2.056 2.056 0 0 0 .663.141v.012h1.39a2.088 2.088 0 0 0 .693-.12 1.8 1.8 0 0 0 .619-.369 1.861 1.861 0 0 0 .447-.627 2.176 2.176 0 0 0 .172-.9 3.8 3.8 0 0 0-.027-.42 14.064 14.064 0 0 0-.153-1.013c-.032-.17-.062-.323-.09-.463s-.051-.257-.074-.352-.036-.152-.043-.174l-.976.3c.014.051.032.127.054.229s.045.218.071.349.05.27.076.417.049.291.068.431.036.271.049.393a2.922 2.922 0 0 1 .019.3 1.116 1.116 0 0 1-.111.545.827.827 0 0 1-.263.294.755.755 0 0 1-.3.123 1.471 1.471 0 0 1-.232.025h-1.261a1.116 1.116 0 0 1-.506-.1.773.773 0 0 1-.3-.257.9.9 0 0 1-.143-.352 2.185 2.185 0 0 1-.035-.384v-5.659h-1.018v5.662a2.754 2.754 0 0 1-.025.365.644.644 0 0 1-.167.352 1.033 1.033 0 0 1-.455.267 2.88 2.88 0 0 1-.887.107h-.686v-1.031a2.82 2.82 0 0 0-.736-2.155 1.8 1.8 0 0 0-.606-.359 2.205 2.205 0 0 0-1.555.043 2.155 2.155 0 0 0-.687.464 2.634 2.634 0 0 0-.224.289 2.268 2.268 0 0 0-.21.4 3.009 3.009 0 0 0-.22 1.173 2.375 2.375 0 0 0 .2 1.033 1.954 1.954 0 0 0 .52.685m.554-2.793a1.009 1.009 0 0 1 .84-.382c.044 0 .1 0 .169.008a.825.825 0 0 1 .219.052.892.892 0 0 1 .231.139.864.864 0 0 1 .21.276 1.872 1.872 0 0 1 .153.455 3.231 3.231 0 0 1 .06.674V20.5h-1c-.036 0-.082 0-.139-.008s-.119-.015-.188-.028a1.121 1.121 0 0 1-.213-.06 1.1 1.1 0 0 1-.212-.106 1.07 1.07 0 0 1-.426-.976 1.7 1.7 0 0 1 .3-1.075" transform="translate(1313 572)"/>
        <path id="Rectangle_1564" data-name="Rectangle 1564" class="cls-5" transform="rotate(-45 1423.96 -1434.135)" d="M0 0h1.323v1.339H0z"/>
        <path id="Rectangle_1565" data-name="Rectangle 1565" class="cls-5" transform="translate(1434.859 585.752)" d="M0 0h1.03v7.778H0z"/>
        <path id="Path_4951" data-name="Path 4951" class="cls-5" d="M129.435 19.692a2.289 2.289 0 0 0-.163-.456 3.827 3.827 0 0 0-.245-.433l-.612-.916-.458-.688q-.2-.294-.333-.5t-.24-.366c-.069-.1-.129-.194-.179-.272l-.148-.227-.873.568 1.975 2.983a1.872 1.872 0 0 1 .229.428.922.922 0 0 1 .055.259.338.338 0 0 1-.022.121.494.494 0 0 1-.259.2 2.081 2.081 0 0 1-.521.139 3.611 3.611 0 0 1-.447.041h-.23a5.041 5.041 0 0 1-.534-.028 3.827 3.827 0 0 1-.59-.1 1.774 1.774 0 0 1-.468-.177l-.454-.257-.512.9.453.256a2.353 2.353 0 0 0 .45.2 3.816 3.816 0 0 0 .518.137 5.492 5.492 0 0 0 .553.076 6.7 6.7 0 0 0 .563.025 5.688 5.688 0 0 0 .841-.06 1.86 1.86 0 0 0 1.582-.949 1.027 1.027 0 0 0 .109-.353c0-.085.006-.135.006-.149a1.777 1.777 0 0 0-.05-.415" transform="translate(1313 572)"/>
        <path id="Path_4952" data-name="Path 4952" class="cls-5" d="m37.244 40.716 1.069 1.084 1.069-1.069-1.082-1.084z" transform="translate(1313 572)"/>
        <path id="Path_4953" data-name="Path 4953" class="cls-5" d="M45.921 34.9q-.048-.3-.1-.6c-.036-.2-.072-.381-.108-.547l-.092-.417a3.178 3.178 0 0 0-.051-.207l-1.317.4.07.274c.03.119.06.253.092.4s.065.308.1.478.064.334.09.5.046.311.063.452a2.988 2.988 0 0 1 .026.349 1.2 1.2 0 0 1-.118.585.9.9 0 0 1-.277.316.827.827 0 0 1-.321.131 1.884 1.884 0 0 1-.245.025h-3.097c-.03 0-.076 0-.14-.007a1.161 1.161 0 0 1-.213-.032 1.252 1.252 0 0 1-.239-.086.832.832 0 0 1-.222-.155.817.817 0 0 1-.169-.248.89.89 0 0 1-.067-.366v-2.118H38.2v2.157a1.2 1.2 0 0 1-.038.291.59.59 0 0 1-.166.273.968.968 0 0 1-.379.207 2.209 2.209 0 0 1-.671.083h-2.069v-1.051a4.5 4.5 0 0 0-.225-1.508 2.644 2.644 0 0 0-.665-1.044 2.2 2.2 0 0 0-.735-.435 2.6 2.6 0 0 0-.882-.146 2.523 2.523 0 0 0-1.008.2 2.618 2.618 0 0 0-.831.563 3.672 3.672 0 0 0-.273.343 2.454 2.454 0 0 0-.255.469 3.373 3.373 0 0 0-.188.614 3.715 3.715 0 0 0-.073.776 2.807 2.807 0 0 0 .245 1.241 2.289 2.289 0 0 0 .63.808 2.4 2.4 0 0 0 .859.436 3.526 3.526 0 0 0 .939.131h1.075a2.978 2.978 0 0 1-.047.486 2.039 2.039 0 0 1-.115.389 1.249 1.249 0 0 1-.185.311 1.9 1.9 0 0 1-.257.258 2.342 2.342 0 0 1-.993.439 7.689 7.689 0 0 1-1.616.14v1.394a10.969 10.969 0 0 0 1.142-.054 6.679 6.679 0 0 0 .938-.163 3.908 3.908 0 0 0 .77-.277 3.6 3.6 0 0 0 .631-.391 2.881 2.881 0 0 0 .83-1.05 3.681 3.681 0 0 0 .289-1.482h2.068a3.633 3.633 0 0 0 1.117-.16 2.348 2.348 0 0 0 .837-.458 1.793 1.793 0 0 0 .732.461 3.024 3.024 0 0 0 1.005.157h3.048a2.529 2.529 0 0 0 .84-.147 2.239 2.239 0 0 0 .755-.445 2.271 2.271 0 0 0 .544-.764 2.638 2.638 0 0 0 .209-1.1 4.54 4.54 0 0 0-.032-.491 14.545 14.545 0 0 0-.08-.586m-12.43 2.136h-1.075c-.038 0-.089 0-.15-.01a1.991 1.991 0 0 1-.207-.035 2.618 2.618 0 0 1-.238-.066 1.081 1.081 0 0 1-.232-.112.94.94 0 0 1-.338-.381 1.433 1.433 0 0 1-.114-.618 1.832 1.832 0 0 1 .324-1.168 1.1 1.1 0 0 1 .91-.4c.047 0 .107 0 .182.006a.858.858 0 0 1 .235.051.822.822 0 0 1 .248.15.972.972 0 0 1 .226.3 1.9 1.9 0 0 1 .166.493 3.73 3.73 0 0 1 .063.747z" transform="translate(1313 572)"/>
        <path id="Path_4954" data-name="Path 4954" class="cls-5" d="m43.786 40.779 1.006 1.021 1.018-1.019-1.031-1.03z" transform="translate(1313 572)"/>
        <path id="Path_4955" data-name="Path 4955" class="cls-5" d="m41.361 40.767 1 1.019 1.018-1.019-1.03-1.03z" transform="translate(1313 572)"/>
        <path id="Path_4956" data-name="Path 4956" class="cls-5" d="m55.215 40.8 1 1.019 1.023-1.019-1.03-1.03z" transform="translate(1313 572)"/>
        <path id="Path_4957" data-name="Path 4957" class="cls-5" d="m57.639 40.817 1 1.019 1.018-1.019-1.03-1.03z" transform="translate(1313 572)"/>
        <path id="Path_4958" data-name="Path 4958" class="cls-5" d="M66.93 33.37a3.74 3.74 0 0 0-.3-.748 2.445 2.445 0 0 0-.464-.615 2.176 2.176 0 0 0-.656-.425 2.434 2.434 0 0 0-.875-.183h-.121a2.312 2.312 0 0 0-.891.173 2.409 2.409 0 0 0-.8.546 2.586 2.586 0 0 0-.72 1.795A2.409 2.409 0 0 0 62.32 35a1.825 1.825 0 0 0 .6.7 2.475 2.475 0 0 0 .9.375 5.269 5.269 0 0 0 1.117.111h.808a.89.89 0 0 1-.127.3.843.843 0 0 1-.325.274 2.22 2.22 0 0 1-.624.2 5.343 5.343 0 0 1-1.024.08h-3.238c-.029 0-.076 0-.14-.007a1.166 1.166 0 0 1-.213-.033 1.25 1.25 0 0 1-.238-.087.818.818 0 0 1-.223-.156.788.788 0 0 1-.169-.247.907.907 0 0 1-.066-.366v-2.116H57.97v2.156a1.152 1.152 0 0 1-.038.291.594.594 0 0 1-.165.274.975.975 0 0 1-.379.206 2.216 2.216 0 0 1-.672.083h-2.208a.832.832 0 0 1-.5-.2 3.356 3.356 0 0 1-.512-.493 6.819 6.819 0 0 1-.481-.63c-.152-.224-.291-.427-.413-.61l-.78-1.173a146.664 146.664 0 0 1-1.028-1.564l-.153-.229-.388-.586-1.164.764.381.586-.006-.007a1.761 1.761 0 0 0 .1.153c.085.126.218.326.4.594s.407.608.674 1.017.571.871.91 1.393a1.013 1.013 0 0 1 .191.509v.038a.415.415 0 0 1-.235.325 1.609 1.609 0 0 1-.576.156 7.32 7.32 0 0 1-.824.04c-.17 0-.339-.005-.509-.018a4.647 4.647 0 0 1-.49-.062 3.141 3.141 0 0 1-.439-.1 1.815 1.815 0 0 1-.356-.151l-.6-.344-.694 1.209.6.344a3.314 3.314 0 0 0 .43.2 4.493 4.493 0 0 0 .454.143c.153.038.3.067.443.088s.274.038.4.052a7.834 7.834 0 0 0 1.27.021c.167-.01.33-.028.487-.053a3.3 3.3 0 0 0 1.158-.357 1.854 1.854 0 0 0 .509-.413 2.553 2.553 0 0 0 1.654.742v.008h2.3a3.657 3.657 0 0 0 1.117-.158 2.363 2.363 0 0 0 .837-.458 1.812 1.812 0 0 0 .732.46 3.055 3.055 0 0 0 1.005.156h3.246a7.632 7.632 0 0 0 .875-.05 4.666 4.666 0 0 0 .821-.172 3.643 3.643 0 0 0 .722-.309 2.073 2.073 0 0 0 .945-1.116 2.416 2.416 0 0 0 .137-.847v-.878a8.332 8.332 0 0 0-.058-.858 5.125 5.125 0 0 0-.166-.83m-1.985 1.485a4.173 4.173 0 0 1-.538-.035 1.709 1.709 0 0 1-.5-.136.96.96 0 0 1-.365-.291.787.787 0 0 1-.146-.493 1.25 1.25 0 0 1 .1-.518.977.977 0 0 1 .267-.359.911.911 0 0 1 .357-.189 1.446 1.446 0 0 1 .359-.047c.051 0 .1 0 .153.005a1.049 1.049 0 0 1 .649.261 1.326 1.326 0 0 1 .334.53 2.444 2.444 0 0 1 .127.646q.023.339.035.626z" transform="translate(1313 572)"/>
        <path id="Path_4959" data-name="Path 4959" class="cls-5" d="m65.689 28.917-1.082-1.082-1.056 1.065 1.069 1.082z" transform="translate(1313 572)"/>
        <path id="Path_4960" data-name="Path 4960" class="cls-5" d="m76.412 33.557 1.069 1.082 1.069-1.069-1.081-1.082z" transform="translate(1313 572)"/>
        <path id="Rectangle_1566" data-name="Rectangle 1566" class="cls-5" transform="rotate(-45 1426.942 -1389.952)" d="M0 0h1.35v1.332H0z"/>
        <path id="Path_4961" data-name="Path 4961" class="cls-5" d="m86.326 31.412 1.019 1.019 1.018-1.031-1.018-1.018z" transform="translate(1313 572)"/>
        <path id="Path_4962" data-name="Path 4962" class="cls-5" d="m91.093 31.374-1.024-1.019-1.032 1.032 1.051 1.005z" transform="translate(1313 572)"/>
        <path id="Path_4963" data-name="Path 4963" class="cls-5" d="m97.933 40.817 1.006 1.019 1.017-1.019-1.03-1.03z" transform="translate(1313 572)"/>
        <path id="Path_4964" data-name="Path 4964" class="cls-5" d="m95.509 40.8 1 1.019 1.023-1.019-1.032-1.025z" transform="translate(1313 572)"/>
        <path id="Path_4965" data-name="Path 4965" class="cls-5" d="m112.6 40.817 1.006 1.019 1.017-1.019-1.03-1.03z" transform="translate(1313 572)"/>
        <path id="Path_4966" data-name="Path 4966" class="cls-5" d="m110.177 40.8 1 1.019L112.2 40.8l-1.031-1.03z" transform="translate(1313 572)"/>
        <path id="Rectangle_1567" data-name="Rectangle 1567" class="cls-5" transform="rotate(-45 1459.498 -1425.072)" d="M0 0h1.331v1.35H0z"/>
        <path id="Path_4967" data-name="Path 4967" class="cls-5" d="m123.426 40.538 1.03 1.03 1.019-1.017-1.019-1.032z" transform="translate(1313 572)"/>
        <path id="Path_4968" data-name="Path 4968" class="cls-5" d="M123.928 38.285a2.239 2.239 0 0 0 .755-.445 2.267 2.267 0 0 0 .544-.764 2.657 2.657 0 0 0 .21-1.1 4.567 4.567 0 0 0-.032-.493c-.022-.188-.048-.384-.08-.586s-.066-.4-.1-.6-.071-.381-.108-.547l-.092-.417a2.595 2.595 0 0 0-.051-.207l-1.317.4.07.274c.03.119.06.252.092.4l.1.477c.035.169.064.335.09.5s.046.311.064.452a3.19 3.19 0 0 1 .025.349 1.2 1.2 0 0 1-.118.585.885.885 0 0 1-.277.316.827.827 0 0 1-.321.131 1.868 1.868 0 0 1-.245.025h-2.787a1.211 1.211 0 0 1-.458-.118.99.99 0 0 1-.328-.258 1.1 1.1 0 0 1-.2-.365 1.4 1.4 0 0 1-.067-.437v-6.615h-1.388v6.618a2.92 2.92 0 0 1-.028.4.677.677 0 0 1-.194.379 1.256 1.256 0 0 1-.531.286 3.611 3.611 0 0 1-1.035.115h-.751c-.03 0-.076 0-.14-.007a1.277 1.277 0 0 1-.451-.121.787.787 0 0 1-.392-.4.892.892 0 0 1-.066-.367v-2.118h-1.388v2.157a1.185 1.185 0 0 1-.038.29.594.594 0 0 1-.165.274.975.975 0 0 1-.379.207 2.22 2.22 0 0 1-.672.083h-2.259a2.111 2.111 0 0 1-.763-.128 2.274 2.274 0 0 1-.633-.378 4.475 4.475 0 0 1-.6-.621q-.3-.369-.661-.853l-2.463-3.284 5.015-2.309-.573-1.28-5.727 2.641-.248 1.2q.242.273.537.62c.2.232.4.473.6.726s.4.507.588.764.361.5.509.735a5.415 5.415 0 0 1 .357.639 1.206 1.206 0 0 1 .133.48.88.88 0 0 1-.019.182.735.735 0 0 1-.051.162.987.987 0 0 1-.283.283 1.943 1.943 0 0 1-.442.223 3.394 3.394 0 0 1-.567.146 3.793 3.793 0 0 1-.648.055H100.7c-.03 0-.076 0-.14-.007a1.277 1.277 0 0 1-.451-.121.787.787 0 0 1-.392-.4.892.892 0 0 1-.066-.367v-2.119h-1.387v2.157a1.185 1.185 0 0 1-.038.29.594.594 0 0 1-.165.274.975.975 0 0 1-.379.207 2.22 2.22 0 0 1-.672.083h-2.761a1.539 1.539 0 0 1-.949-.238.957.957 0 0 1-.324-.782v-1.98h-1.393v1.98a1.336 1.336 0 0 1-.1.48.909.909 0 0 1-.219.314.818.818 0 0 1-.3.175 1.087 1.087 0 0 1-.338.055 1.25 1.25 0 0 1-.878-.258 1.1 1.1 0 0 1-.273-.831v-1.919h-1.386v1.947a1.273 1.273 0 0 1-.1.551.883.883 0 0 1-.246.317.742.742 0 0 1-.3.147 1.879 1.879 0 0 1-.258.042 1.239 1.239 0 0 1-.862-.265 1.092 1.092 0 0 1-.271-.824v-1.915h-1.393v1.947a1.957 1.957 0 0 1-.047.446.686.686 0 0 1-.188.334.9.9 0 0 1-.392.207 2.551 2.551 0 0 1-.658.07h-.917a1.146 1.146 0 0 1-.747-.232.884.884 0 0 1-.3-.7v-2.072h-1.39v4.474a3.505 3.505 0 0 1-.089.827 1.3 1.3 0 0 1-.334.614 1.559 1.559 0 0 1-.687.382 4.168 4.168 0 0 1-1.149.13h-1.317a2.456 2.456 0 0 1-1.162-.27 2.182 2.182 0 0 1-.83-.767 2.748 2.748 0 0 1-.315-.681 2.841 2.841 0 0 1-.105-.814 5.04 5.04 0 0 1 .216-1.414 10.4 10.4 0 0 1 .656-1.634l-1.254-.6a12.048 12.048 0 0 0-.747 1.929 6.32 6.32 0 0 0-.252 1.723 4.138 4.138 0 0 0 .162 1.191 4.425 4.425 0 0 0 .462 1.031 3.56 3.56 0 0 0 .6.716 3.723 3.723 0 0 0 .748.534 3.584 3.584 0 0 0 .865.334 3.983 3.983 0 0 0 .958.115h1.317a4.011 4.011 0 0 0 2.733-.815 3.213 3.213 0 0 0 .92-2.532v-.3a1.019 1.019 0 0 0 .5.193 4.951 4.951 0 0 0 .54.029h.917a3.779 3.779 0 0 0 1.145-.156 2.4 2.4 0 0 0 .853-.468 2.474 2.474 0 0 0 .77.456 2.9 2.9 0 0 0 1.025.168h.044a2.3 2.3 0 0 0 .831-.174 2.385 2.385 0 0 0 .741-.475 2.244 2.244 0 0 0 .8.487 3.113 3.113 0 0 0 1.05.162 2.585 2.585 0 0 0 .907-.162 1.9 1.9 0 0 0 .742-.493 2.1 2.1 0 0 0 .83.493 3.664 3.664 0 0 0 1.142.162h2.757a3.634 3.634 0 0 0 1.117-.159 2.348 2.348 0 0 0 .837-.458 1.793 1.793 0 0 0 .732.461 3.025 3.025 0 0 0 1 .156h2.692a5.61 5.61 0 0 0 .973-.083 3.7 3.7 0 0 0 .854-.248 2.9 2.9 0 0 0 .407-.225 3.03 3.03 0 0 0 .363-.283 2.991 2.991 0 0 0 .3-.326 2.13 2.13 0 0 0 .226-.343c.195.22.386.424.572.608a3.312 3.312 0 0 0 .611.477 2.886 2.886 0 0 0 .745.312 3.694 3.694 0 0 0 .935.109h2.3a3.634 3.634 0 0 0 1.117-.159 2.348 2.348 0 0 0 .837-.458 1.793 1.793 0 0 0 .732.461 3.025 3.025 0 0 0 1.005.156h1.018v-.016c.192-.008.39-.012.558-.034a3.691 3.691 0 0 0 .671-.151 2.7 2.7 0 0 0 .541-.241 2.338 2.338 0 0 0 .432-.328c.149.123.284.231.407.325a2.438 2.438 0 0 0 .379.238 1.8 1.8 0 0 0 .423.15 2.918 2.918 0 0 0 .458.048v.009h2.832a2.523 2.523 0 0 0 .84-.146" transform="translate(1313 572)"/>
        <path id="Path_4969" data-name="Path 4969" class="cls-5" d="m121.79 39.507-1.019 1.019 1.019 1.03 1.018-1.018z" transform="translate(1313 572)"/>
        <path id="Rectangle_1568" data-name="Rectangle 1568" class="cls-5" transform="translate(1440.269 601.255)" d="M0 0h1.395v9.177H0z"/>
        <path id="Rectangle_1569" data-name="Rectangle 1569" transform="translate(1313 572)" style="fill:none" d="M0 0h188v56H0z"/>
    </g>
</svg>
