<svg id="Group_3471" data-name="Group 3471" xmlns="http://www.w3.org/2000/svg" width="188" height="56">
    <defs>
        <clipPath id="clip-path">
            <path id="Rectangle_1555" data-name="Rectangle 1555" style="fill:none" d="M0 0h188v56H0z"/>
        </clipPath>
        <style>
            .cls-8{fill:#fff}
        </style>
    </defs>
    <g id="Group_3470" data-name="Group 3470" style="clip-path:url(#clip-path)">
        <rect id="Rectangle_1549" data-name="Rectangle 1549" width="186" height="54" rx="9" transform="translate(1 1)"/>
        <path id="Path_4889" data-name="Path 4889" d="M178 2a8.009 8.009 0 0 1 8 8v36a8.009 8.009 0 0 1-8 8H10a8.009 8.009 0 0 1-8-8V10a8.009 8.009 0 0 1 8-8h168m0-2H10A10 10 0 0 0 0 10v36a10 10 0 0 0 10 10h168a10 10 0 0 0 10-10V10a10 10 0 0 0-10-10" style="fill:#a6a6a6"/>
        <path id="Path_4890" data-name="Path 4890" d="M16.6 12.6a2.352 2.352 0 0 0-.6 1.7v27.5a2.649 2.649 0 0 0 .6 1.7l.1.1 15.5-15.4V28z" style="fill:#08c8fe"/>
        <path id="Path_4891" data-name="Path 4891" d="m37.4 33.4-5.1-5.1V28l5.1-5.1.1.1 6.1 3.5c1.8 1 1.8 2.6 0 3.6z" style="fill:#fed818"/>
        <path id="Path_4892" data-name="Path 4892" d="m37.6 33.4-5.3-5.2-15.7 15.4c.6.6 1.5.6 2.6.1z" style="fill:#ff3a44"/>
        <path id="Path_4893" data-name="Path 4893" d="M37.4 22.9 19.3 12.5a2.056 2.056 0 0 0-2.6.1l15.7 15.6z" style="fill:#00ef78"/>
        <path id="Path_4894" data-name="Path 4894" class="cls-8" d="M91.8 32.8a5.9 5.9 0 1 0 6 5.9 5.931 5.931 0 0 0-6-5.9m0 9.4a3.4 3.4 0 0 1-3.3-3.6 3.4 3.4 0 0 1 3.3-3.6 3.346 3.346 0 0 1 3.3 3.6 3.346 3.346 0 0 1-3.3 3.6m-13-9.4a5.9 5.9 0 1 0 6 5.9 6 6 0 0 0-6-5.9m0 9.4a3.4 3.4 0 0 1-3.3-3.6 3.4 3.4 0 0 1 3.3-3.6 3.346 3.346 0 0 1 3.3 3.6 3.346 3.346 0 0 1-3.3 3.6m-15.5-7.6v2.5h6a5.02 5.02 0 0 1-1.4 3.2 6.187 6.187 0 0 1-4.6 1.8 6.388 6.388 0 0 1-6.5-6.6 6.509 6.509 0 0 1 6.5-6.6 6.664 6.664 0 0 1 4.6 1.8l1.8-1.8a8.886 8.886 0 0 0-6.3-2.5 9.375 9.375 0 0 0-9.3 9.1 9.307 9.307 0 0 0 9.3 9.1 8.022 8.022 0 0 0 6.4-2.6 8.171 8.171 0 0 0 2.2-5.8 6.622 6.622 0 0 0-.1-1.5h-8.6zm63.1 2a5.457 5.457 0 0 0-5-3.7 5.6 5.6 0 0 0-5.6 5.9 5.787 5.787 0 0 0 5.9 5.9 6.07 6.07 0 0 0 4.9-2.6l-2-1.4a3.323 3.323 0 0 1-2.9 1.7 3.057 3.057 0 0 1-2.9-1.8l7.9-3.3zm-8 1.9a3.418 3.418 0 0 1 3.1-3.5 2.441 2.441 0 0 1 2.2 1.2zm-6.4 5.8h2.6V26.9H112zm-4.4-10.1a4.56 4.56 0 0 0-3.2-1.4 5.94 5.94 0 0 0-5.7 5.9 5.72 5.72 0 0 0 5.7 5.8 4.134 4.134 0 0 0 3.1-1.4h.1v.9c0 2.2-1.3 3.5-3.2 3.5a3.092 3.092 0 0 1-2.9-2.1l-2.2 1a5.854 5.854 0 0 0 5.3 3.5c3.1 0 5.6-1.8 5.6-6.1V33.2h-2.5v1zm-2.9 8a3.4 3.4 0 0 1-3.3-3.6 3.4 3.4 0 0 1 3.3-3.6 3.329 3.329 0 0 1 3.2 3.6c-.1 2.2-1.5 3.6-3.2 3.6m34-15.3h-6.3v17.3h2.6v-6.5h3.6a5.5 5.5 0 0 0 5.7-5.4 5.357 5.357 0 0 0-5.6-5.4m0 8.4h-3.8v-5.9h3.8a2.954 2.954 0 1 1 0 5.9m16-2.5c-2 0-3.9.8-4.6 2.6l2.4 1a2.436 2.436 0 0 1 2.4-1.2 2.639 2.639 0 0 1 2.8 2.2v.1a5.075 5.075 0 0 0-2.6-.7c-2.5 0-5 1.4-5 3.9a4.061 4.061 0 0 0 4.3 3.9 3.727 3.727 0 0 0 3.3-1.7h.1v1.4h2.5v-6.6c-.3-3.2-2.5-4.9-5.6-4.9m-.3 9.4c-.8 0-2.1-.4-2.1-1.5 0-1.4 1.5-1.8 2.8-1.8a5.283 5.283 0 0 1 2.4.6 2.981 2.981 0 0 1-3.1 2.7m14.8-9-2.9 7.5h-.1l-3.1-7.5h-2.8l4.6 10.5-2.6 5.7h2.6l7.1-16.3zm-23.4 11.1h2.6V26.9h-2.6z"/>
        <path id="Rectangle_1550" data-name="Rectangle 1550" class="cls-8" transform="rotate(-45 68.612 -130.82)" d="M0 0h1.838v1.838H0z"/>
        <path id="Rectangle_1551" data-name="Rectangle 1551" class="cls-8" transform="translate(116.6 7.9)" d="M0 0h1.8v10.3H0z"/>
        <path id="Path_4895" data-name="Path 4895" class="cls-8" d="M113.1 17.6a3.73 3.73 0 0 1-.2 1.2 2.1 2.1 0 0 1-1.3 1.3 4.121 4.121 0 0 1-1.2.1h-.9V22h.9a4.844 4.844 0 0 0 1.8-.3 4.2 4.2 0 0 0 1.4-.9 3.805 3.805 0 0 0 .9-1.3 8.024 8.024 0 0 0 .4-1.8v-4.5h-1.8v4.4"/>
        <path id="Path_4896" data-name="Path 4896" class="cls-8" d="m135 11.5-1.2-1.3-1.2 1.3 1.2 1.2z"/>
        <path id="Path_4897" data-name="Path 4897" class="cls-8" d="m132 11.5-1.2-1.3-1.2 1.3 1.2 1.2z"/>
        <path id="Rectangle_1552" data-name="Rectangle 1552" class="cls-8" transform="rotate(-45 80.64 -168.985)" d="M0 0h1.838v1.838H0z"/>
        <path id="Path_4898" data-name="Path 4898" class="cls-8" d="M162.8 17.6a3.73 3.73 0 0 1-.2 1.2 2.1 2.1 0 0 1-1.3 1.3 4.121 4.121 0 0 1-1.2.1h-.9V22h.9a4.844 4.844 0 0 0 1.8-.3 4.2 4.2 0 0 0 1.4-.9 3.805 3.805 0 0 0 .9-1.3 8.025 8.025 0 0 0 .4-1.8v-4.5h-1.8z"/>
        <path id="Path_4899" data-name="Path 4899" class="cls-8" d="M147.4 12.4a2.01 2.01 0 0 0-.4-.8 1.794 1.794 0 0 0-.5-.7 2.177 2.177 0 0 0-.8-.5 2.958 2.958 0 0 0-1-.2h-.1a2.958 2.958 0 0 0-1 .2 3.49 3.49 0 0 0-.9.6 2.361 2.361 0 0 0-.6.9 4.253 4.253 0 0 0-.2 1.1 2.768 2.768 0 0 0 .3 1.3 2.361 2.361 0 0 0 .8.9 4.874 4.874 0 0 0 1.1.4c.4 0 .7.1.9.1a3.751 3.751 0 0 0 1-.1c0 .1-.1.2-.2.3a.52.52 0 0 1-.4.2 6.372 6.372 0 0 1-.7.2c-.3 0-.6.1-1 .1h-3.5c-.1 0-.2-.1-.3-.1s-.2-.1-.3-.2-.1-.2-.2-.3c0-.1-.1-.3-.1-.4v-2.1h-1.8v2.4a.764.764 0 0 1-.2.5.52.52 0 0 1-.4.2c-.2 0-.4.1-.7.1h-8.5c-.1 0-.2-.1-.3-.1-.1-.1-.2-.2-.2-.3-.1-.1-.1-.3-.1-.6V15c0-.2.1-.4.1-.6s.1-.4.1-.6.1-.3.1-.5l-.8-.3-.9-.3a.494.494 0 0 1-.1.3c-.1.2-.1.4-.2.6s-.1.5-.2.8c0 .3-.1.5-.1.8a2.2 2.2 0 0 0 .1.8c.1.2.1.4.2.6s.2.3.3.5l.3.3a2.177 2.177 0 0 0 .8.5 2.958 2.958 0 0 0 1 .2h8.2a2.817 2.817 0 0 0 2.1-.7 2.185 2.185 0 0 0 .5.3c.2.1.3.2.5.2s.4.1.6.1h3.6a7.569 7.569 0 0 0 1.5-.1 3.337 3.337 0 0 0 1.2-.5 2.836 2.836 0 0 0 .9-1 3.867 3.867 0 0 0 .4-1.7v-.5a3.4 3.4 0 0 0-.1-1 .627.627 0 0 0 .2-.8m-2.4 1.7a2.959 2.959 0 0 1-1-.2 1.068 1.068 0 0 1-.7-.9.9.9 0 0 1 .1-.5c.1-.1.2-.3.3-.4a.758.758 0 0 1 .4-.2c.1 0 .3-.1.4-.1h.1a.6.6 0 0 1 .6.3 1 1 0 0 1 .4.5c.1.2.1.4.2.6v.7a1.077 1.077 0 0 1-.8.2"/>
        <path id="Path_4900" data-name="Path 4900" class="cls-8" d="M158.5 14.2c0-.2-.1-.4-.1-.7 0-.2-.1-.4-.1-.6s-.1-.3-.1-.5c0-.1 0-.2-.1-.2l-1.7.5a.367.367 0 0 0 .1.3c0 .1.1.3.1.4 0 .2.1.3.1.5a4.331 4.331 0 0 0 .1.5.9.9 0 0 0 .1.5v.4c0 .3 0 .5-.1.6s-.2.3-.3.3a.367.367 0 0 1-.3.1h-3a2.22 2.22 0 0 1-.9-.1.55.55 0 0 1-.5-.3.764.764 0 0 1-.2-.5V7.9h-1.8v7.9a2.92 2.92 0 0 0 .2.9 1.612 1.612 0 0 0 .4.7 2.652 2.652 0 0 0 .6.5c.3.1.6.2 1 .3a3.75 3.75 0 0 0 1.1.1h3.1a3.553 3.553 0 0 0 1-.2 4.053 4.053 0 0 0 .9-.5 1.456 1.456 0 0 0 .6-.9 2.745 2.745 0 0 0 .2-1.3v-.6c-.3-.2-.3-.4-.4-.6"/>
        <path id="Path_4901" data-name="Path 4901" class="cls-8" d="M172 15.6a2.22 2.22 0 0 0-.5-1.1c-.3-.5-.6-.9-.8-1.2l-.6-.9a2.092 2.092 0 0 1-.4-.6 1.439 1.439 0 0 1-.2-.3c0-.1-.1-.1-.1-.2l-.5-.8-1.5 1 2.7 3.9a.367.367 0 0 1 .1.3v.3a1 1 0 0 1-.5.4 1.7 1.7 0 0 1-.7.1h-.4a6.882 6.882 0 0 1-1.3-.2 6.468 6.468 0 0 1-1.3-.4l-.5 1.7.9.3c.2.1.4.1.6.2.2 0 .4.1.6.1a4.332 4.332 0 0 1 .5.1h.5a4.485 4.485 0 0 0 1.1-.1 2.195 2.195 0 0 0 1.2-.5c.2-.1.3-.3.5-.4.1-.2.2-.3.3-.5a2.353 2.353 0 0 0 .2-.8.756.756 0 0 0 .1-.4"/>
        <path id="Rectangle_1553" data-name="Rectangle 1553" class="cls-8" transform="rotate(-45 101.779 -174.358)" d="M0 0h1.697v1.697H0z"/>
        <path id="Rectangle_1554" data-name="Rectangle 1554" class="cls-8" transform="rotate(-45 103.279 -177.98)" d="M0 0h1.697v1.697H0z"/>
    </g>
</svg>
