<svg xmlns="http://www.w3.org/2000/svg" width="321.464" height="142.759" viewBox="0 0 321.464 142.759">
    <defs>
        <clipPath id="clip-path">
            <path id="Rectangle_1370" d="M0 0H46.947V46.806H0z" class="cls-1"/>
        </clipPath>
        <clipPath id="clip-path-2">
            <path id="Rectangle_1474" d="M0 0H72.71V70.163H0z" class="cls-1"/>
        </clipPath>
        <clipPath id="clip-path-3">
            <path id="Rectangle_1475" d="M0 0H31.08V46.635H0z" class="cls-1"/>
        </clipPath>
        <clipPath id="clip-path-4">
            <path id="Rectangle_1478" d="M0 0H41.845V41.482H0z" class="cls-1"/>
        </clipPath>
        <clipPath id="clip-path-5">
            <path id="Rectangle_1479" d="M0 0H44.923V51.809H0z" class="cls-1"/>
        </clipPath>
        <style>
            .cls-1{fill:#28c5cc}.cls-2{opacity:.4}
        </style>
    </defs>
    <g id="Group_3431" transform="translate(-1248.246 -122.716)">
        <g id="Group_3143" class="cls-2" transform="rotate(-101 816.318 -471.204)">
            <g id="Group_3142" clip-path="url(#clip-path)">
                <path id="Path_4563" d="M.292 15.791a.817.817 0 0 0-.08 1.177C.246 17 3.563 20.685 4.35 23.23a15.035 15.035 0 0 1 .017 8.116 3.274 3.274 0 0 0 3.578 5.449 14.958 14.958 0 0 1 7.439 3.243c2.02 1.733 4.08 6.242 4.1 6.287a.819.819 0 0 0 1.111.395l6-2.991a.818.818 0 1 0-.73-1.465l-5.256 2.62c-.719-1.451-2.394-4.574-4.16-6.089a16.1 16.1 0 0 0-6.52-3.283l17.413-11.433c.9-.056 5.064-.127 7.192 3.115a27.045 27.045 0 0 1 3.378 9.065l-13.326 6.686a.818.818 0 1 0 .73 1.465l13.875-6.96a.819.819 0 0 0 .444-.858 31.839 31.839 0 0 0-.719-3.2l4.824-2.451a.818.818 0 0 0 .313-1.18 16.915 16.915 0 0 0-1.16-1.561l3.633-2.023a.819.819 0 0 0 .286-1.165 12.42 12.42 0 0 0-15.4-4.545c-4.824 2.136-4.683 2.055-4.8 2.131a1.638 1.638 0 1 1-1.8-2.739c.143-.094.26-.237 3.864-3.556A12.422 12.422 0 0 0 30.636.369a.819.819 0 0 0-1.182-.2L26.153 2.7a16.514 16.514 0 0 0-.971-1.685.817.817 0 0 0-1.207-.185l-4.166 3.451a31.854 31.854 0 0 0-2.652-1.932.819.819 0 0 0-.964.065zm41.866 14.115l-3.72 1.894a23.115 23.115 0 0 0-2.538-5.5 7.968 7.968 0 0 0-1.681-1.852 15.07 15.07 0 0 1 7.936 5.462m-10.08-7.943a10.741 10.741 0 0 1 12.85 3.227l-3.182 1.772a16.7 16.7 0 0 0-10.359-4.696zm-9.1 1.062a3.245 3.245 0 0 0 1.267 1.127L7.316 35.267a1.637 1.637 0 1 1-1.8-2.737l16.935-11.117a3.251 3.251 0 0 0 .531 1.612m4.591-7.925l-.557.515a16.707 16.707 0 0 0-.185-11.374l2.892-2.215a10.745 10.745 0 0 1-2.15 13.074m-1.424-2.953a7.916 7.916 0 0 0-1.03-2.278 23.136 23.136 0 0 0-4.039-4.515l3.214-2.661a15.062 15.062 0 0 1 1.856 9.453m-2.4-1.38c2.129 3.242.407 7.034 0 7.836L6.335 30.035a16.13 16.13 0 0 0-.42-7.288 21.5 21.5 0 0 0-3.932-6.239L16.777 4.063a27.04 27.04 0 0 1 6.973 6.7" class="cls-1" transform="translate(-.001)"/>
            </g>
        </g>
        <g id="Group_3383" class="cls-2" transform="translate(1497 131)">
            <g id="Group_3382" clip-path="url(#clip-path-2)">
                <path id="Path_4709" d="M71.026 32.5l-.016-.022c-.024-.028-.048-.055-.073-.079l-.008-.007a.881.881 0 0 0-.074-.063l-.021-.015a.82.82 0 0 0-.073-.047l-.013-.009-9.417-5.249L43.653.777A1.769 1.769 0 0 0 41.2.3L.777 27.544A1.766 1.766 0 0 0 .3 29.993l17.68 26.234 1.331 10.7v.016a.847.847 0 0 0 .016.085l.006.025c.009.032.019.062.03.093v.009a.874.874 0 0 0 .046.1l.014.023c.01.016.018.033.029.048l1.293 1.918a2.1 2.1 0 0 0 2.909.567l48.131-32.437a2.1 2.1 0 0 0 .567-2.91l-1.292-1.917-.034-.045M1.845 29.023L42.173 1.845l17.259 25.61L19.1 54.632zm17.986 27.318L60.742 28.77l7.822 4.36-16.607 11.191-2.87-2.46a1.722 1.722 0 0 0-2.077-.12l-10 6.741a1.719 1.719 0 0 0-.668 1.969l1.2 3.584-16.605 11.192zm30.558-10.962l-11.278 7.6-1.017-3.03 9.868-6.65zm20.451-9.9a.274.274 0 0 1-.073.379L22.642 68.294a.272.272 0 0 1-.378-.074l-.783-1.161 48.577-32.738z" class="cls-1"/>
                <path id="Path_4710" d="M49.284 17.506a.91.91 0 0 0-.246 1.265l5.162 7.665L20.123 49.4l-5.165-7.665a.912.912 0 0 0-1.512 1.019l5.386 7.992a1.43 1.43 0 0 0 1.983.386l34.734-23.404a1.431 1.431 0 0 0 .386-1.984l-5.385-7.991a.912.912 0 0 0-1.266-.247" class="cls-1"/>
                <path id="Path_4711" d="M40.462 5.343L5.73 28.75a1.43 1.43 0 0 0-.387 1.984l5.386 7.992a.911.911 0 0 0 1.511-1.019l-5.165-7.665L41.154 7.075l5.166 7.665a.912.912 0 0 0 1.512-1.019L42.446 5.73a1.431 1.431 0 0 0-1.984-.387" class="cls-1"/>
            </g>
        </g>
        <g id="Group_3385" class="cls-2" transform="rotate(-51.98 790.929 -1239.697)">
            <g id="Group_3384" clip-path="url(#clip-path-3)">
                <path id="Path_4712" d="M23.553.57A9.365 9.365 0 0 0 11.61 6.25l-4.907 13a9.365 9.365 0 0 0 5.211 12.155 9.367 9.367 0 0 0 11.944-5.681l4.907-13A9.366 9.366 0 0 0 23.553.57M12.633 29.5a7.265 7.265 0 0 1-4.315-8.551l13.2 4.984a7.264 7.264 0 0 1-8.885 3.567m9.678-5.447L8.968 19.019 13.516 6.97a7.328 7.328 0 0 1 9.318-4.494 7.327 7.327 0 0 1 4.025 9.53z" class="cls-1"/>
                <path id="Path_4713" d="M30.421 22.761a1.018 1.018 0 0 0-1.312.593l-1.44 3.812A13.243 13.243 0 1 1 2.89 17.814L4.328 14a1.018 1.018 0 0 0-1.9-.719L.984 17.094a15.287 15.287 0 0 0 7.965 19.284l-2.176 5.767-4.766-1.8a1.019 1.019 0 1 0-.72 1.906l11.438 4.317a1.018 1.018 0 0 0 .718-1.906l-4.764-1.8 2.177-5.762a15.285 15.285 0 0 0 18.719-9.211l1.44-3.813a1.019 1.019 0 0 0-.594-1.312" class="cls-1"/>
            </g>
        </g>
        <g id="Group_3391" class="cls-2" transform="rotate(58 454.063 1261.81)">
            <g id="Group_3390" clip-path="url(#clip-path-4)">
                <path id="Path_4716" d="M33.335 6.489A19.025 19.025 0 1 0 4.719 31.566l5.937 6.773a9.248 9.248 0 0 0 13.032.859 1.094 1.094 0 0 0 .1-1.551L13.072 25.415a1.1 1.1 0 0 0-1.552-.1A9.2 9.2 0 0 0 8.376 32.4l-2-2.285A16.825 16.825 0 1 1 31.681 7.939a1.106 1.106 0 0 0 .163.149 1.116 1.116 0 0 0 .127.182l2 2.284a9.206 9.206 0 0 0-7.439 2.187 1.1 1.1 0 0 0-.1 1.552L37.15 26.525a1.1 1.1 0 0 0 1.552.1 9.248 9.248 0 0 0 .859-13.032l-5.936-6.772a.968.968 0 0 0-.163-.15 1.075 1.075 0 0 0-.127-.182M12.19 27.758l9.156 10.449a7.032 7.032 0 0 1-9.156-10.449m25.837-3.583L28.87 13.727a7.032 7.032 0 0 1 9.157 10.448" class="cls-1"/>
            </g>
        </g>
        <g id="Group_3393" class="cls-2" transform="rotate(-40 944.109 -1732.648)">
            <g id="Group_3392" clip-path="url(#clip-path-5)">
                <path id="Path_4717" d="M42.518 9.469L18.668.253A3.764 3.764 0 0 0 13.806 2.4L.252 37.477A3.767 3.767 0 0 0 2.4 42.341l23.85 9.215a3.763 3.763 0 0 0 4.866-2.156L44.67 14.332a3.765 3.765 0 0 0-2.152-4.863M29.713 48.863a2.255 2.255 0 0 1-2.913 1.291L2.946 40.937a2.256 2.256 0 0 1-1.291-2.917L15.209 2.947a2.256 2.256 0 0 1 2.917-1.291l23.85 9.217a2.255 2.255 0 0 1 1.291 2.917z" class="cls-1"/>
                <path id="Path_4718" d="M15.1 5.322L3.712 34.784l26.655 10.3 11.385-29.462zm14.41 37.817L5.657 33.922l10.3-26.655 23.85 9.217z" class="cls-1"/>
                <path id="Path_4719" d="M16.769 40.635a2.256 2.256 0 1 0 1.291 2.918 2.257 2.257 0 0 0-1.291-2.918m-1.084 2.806a.752.752 0 1 1 .973-.431.752.752 0 0 1-.973.431" class="cls-1"/>
                <path id="Path_4720" d="M29.781 6.965a1.5 1.5 0 1 1-1.946.86 1.5 1.5 0 0 1 1.946-.86" class="cls-1"/>
            </g>
        </g>
        <g id="fidiplus-stroke" class="cls-2" transform="translate(1402 126)">
            <path id="Path_4753" d="M16 32a1.734 1.734 0 0 1-1.8-1.4l-3-9.8-9.8-3A1.734 1.734 0 0 1 0 16a1.734 1.734 0 0 1 1.4-1.8l9.8-3 3-9.8A1.734 1.734 0 0 1 16 0a1.734 1.734 0 0 1 1.8 1.4l3 9.8 9.8 3A2.021 2.021 0 0 1 32 16a1.808 1.808 0 0 1-1.4 1.8l-9.8 3-3 9.8A1.734 1.734 0 0 1 16 32zM2.9 15.8c-.2.1-.2.4 0 .4l8.9 2.7a2.1 2.1 0 0 1 1.3 1.3l2.7 8.9c.1.2.4.2.4 0l2.7-8.9a2.1 2.1 0 0 1 1.3-1.3l8.9-2.7c.2-.1.2-.4 0-.4L20.2 13a2.1 2.1 0 0 1-1.3-1.3l-2.7-8.9c-.1-.2-.4-.2-.4 0l-2.8 9a2.1 2.1 0 0 1-1.3 1.3z" class="cls-1"/>
        </g>
    </g>
</svg>
