<svg xmlns="http://www.w3.org/2000/svg" width="290.545" height="131.465" viewBox="0 0 290.545 131.465">
    <defs>
        <clipPath id="clip-path">
            <path id="Rectangle_1365" d="M0 0H63.55V62.729H0z" class="cls-1"/>
        </clipPath>
        <clipPath id="clip-path-2">
            <path id="Rectangle_1366" d="M0 0H49.46V49.031H0z" class="cls-1"/>
        </clipPath>
        <clipPath id="clip-path-3">
            <path id="Rectangle_1368" d="M0 0H42.65V53.37H0z" class="cls-1"/>
        </clipPath>
        <clipPath id="clip-path-4">
            <path id="Rectangle_1371" d="M0 0H33.064V48.917H0z" class="cls-1"/>
        </clipPath>
        <clipPath id="clip-path-5">
            <path id="Rectangle_1477" d="M0 0H42.541V44.481H0z" class="cls-1"/>
        </clipPath>
        <style>
            .cls-1{fill:#28c5cc}.cls-2{opacity:.4}
        </style>
    </defs>
    <g id="Group_3430" transform="translate(-365.35 -106.542)">
        <g id="Group_3133" class="cls-2" transform="rotate(-18.01 615.353 -1305.387)">
            <g id="Group_3132" clip-path="url(#clip-path)">
                <path id="Path_4550" d="M63.217 36.244l-.008-.008-2.617-2.457.84-.895a1.058 1.058 0 0 0 .168-1.294 29.818 29.818 0 0 0-4.9-5.937c-3.089-2.9-7.948-6.156-14.032-5.912-.088-6.1-3.7-10.739-6.782-13.632a29.857 29.857 0 0 0-6.234-4.516 1.06 1.06 0 0 0-1.281.25l-.833.888-2.6-2.444a1.06 1.06 0 0 0-1.5.047L.287 24.993a1.056 1.056 0 0 0 .52 1.752c.114.034 11.8 3.061 20.025 15.9l.116.109.069.065a1.125 1.125 0 0 0 .186.174c13.382 7.407 17.144 18.87 17.124 18.983a1.061 1.061 0 0 0 1.783.424l23.153-24.66a1.059 1.059 0 0 0-.046-1.5M2.983 25.216l21.27-22.652L26.1 4.3 7.917 23.659a1.061 1.061 0 0 0 .03 1.5.986.986 0 0 0 .134.108 46.455 46.455 0 0 1 5.187 4.144 27.5 27.5 0 0 1 5.658 7.189A38.948 38.948 0 0 0 2.983 25.216m11.727 2.657a46.441 46.441 0 0 0-4.454-3.673L29.329 3.887a29.228 29.228 0 0 1 5.057 3.789c2.888 2.712 6.247 7.116 6.083 12.831L22.433 39.76c-.619-2.558-2.426-6.914-7.723-11.887m27.326-5.895c5.664-.494 10.3 2.553 13.188 5.264a29.379 29.379 0 0 1 4.1 4.808L40.251 52.363a46.908 46.908 0 0 0-3.916-4.2c-5.266-4.944-9.735-6.482-12.349-6.963zm-2.318 37.729a38.928 38.928 0 0 0-12.393-15.223 27.512 27.512 0 0 1 7.56 5.223 46.327 46.327 0 0 1 4.5 4.938 1.059 1.059 0 0 0 1.487.178 1.167 1.167 0 0 0 .128-.116l18.173-19.356 1.845 1.733z" class="cls-1" transform="translate(.001)"/>
            </g>
        </g>
        <g id="Group_3135" class="cls-2" transform="translate(606.435 166.308)">
            <g id="Group_3134" clip-path="url(#clip-path-2)">
                <path id="Path_4551" d="M39.4 7.67A22.487 22.487 0 1 0 5.578 37.309l7.017 8.007A10.932 10.932 0 0 0 28 46.331a1.294 1.294 0 0 0 .12-1.831L15.451 30.04a1.3 1.3 0 0 0-1.834-.121A10.878 10.878 0 0 0 9.9 38.3l-2.366-2.7A19.886 19.886 0 0 1 37.446 9.383a1.309 1.309 0 0 0 .193.177 1.309 1.309 0 0 0 .15.214l2.366 2.7a10.879 10.879 0 0 0-8.792 2.586 1.293 1.293 0 0 0-.122 1.833l12.67 14.458a1.293 1.293 0 0 0 1.833.121 10.931 10.931 0 0 0 1.015-15.4l-7.015-8.011a1.189 1.189 0 0 0-.193-.176 1.336 1.336 0 0 0-.151-.215M14.408 32.809L25.23 45.16a8.312 8.312 0 0 1-10.822-12.35m30.539-4.235L34.125 16.224a8.312 8.312 0 0 1 10.822 12.35" class="cls-1" transform="translate(0 -.001)"/>
            </g>
        </g>
        <g id="Group_3139" class="cls-2" transform="translate(365.35 115.816)">
            <g id="Group_3138" clip-path="url(#clip-path-3)">
                <path id="Path_4554" d="M23.729 15.983A14.016 14.016 0 0 0 4.921 34.234c1.063 2.946-1.132 7.144-1.2 7.168a.837.837 0 0 0-.05.7.931.931 0 0 0 .439.484l11.62 5.459a.829.829 0 0 0 .654.028.954.954 0 0 0 .506-.485c.021-.045 1.805-4.435 4.752-5.5l.2-.073a13.974 13.974 0 0 0 1.886-26.034m-2.578 24.43c-.067.024-.2.073-.222.118-2.676 1.08-4.472 4.073-5.224 5.555L5.635 41.355c.661-1.525 1.884-4.955.891-7.813a12.258 12.258 0 1 1 14.626 6.872" class="cls-1" transform="translate(-.764 -3.097)"/>
                <path id="Path_4555" d="M13.961 56.3L3.846 51.544a2.114 2.114 0 0 0-1.8 3.828L12.117 60.1a2.172 2.172 0 0 0 2.858-.994 2.127 2.127 0 0 0-1.014-2.806m-1.048 2.233L2.8 53.777a.4.4 0 0 1-.193-.536.37.37 0 0 1 .535-.193l10.07 4.731a.4.4 0 0 1 .193.536.359.359 0 0 1-.49.215" class="cls-1" transform="translate(-.176 -10.847)"/>
                <path id="Path_4556" d="M10.118 61.614l-7.108-3.34a2.114 2.114 0 0 0-1.8 3.828l7.108 3.339a2.127 2.127 0 0 0 2.813-1.014 2.1 2.1 0 0 0-1.015-2.813M9.07 63.847l-7.108-3.34a.4.4 0 0 1-.193-.536.37.37 0 0 1 .536-.192l7.108 3.34a.4.4 0 1 1-.342.729" class="cls-1" transform="translate(0 -12.268)"/>
                <path id="Path_4557" d="M31.181 9.665a.848.848 0 0 0 1.138-.411L34.8 3.968a.856.856 0 0 0-1.549-.728L30.77 8.526a.882.882 0 0 0 .411 1.138" class="cls-1" transform="translate(-6.484 -.582)"/>
                <path id="Path_4558" d="M47.638 15.386a.812.812 0 0 0-1.133-.311l-4.971 3.005a.828.828 0 0 0-.332 1.178.795.795 0 0 0 1.156.265l4.97-3a.78.78 0 0 0 .311-1.133" class="cls-1" transform="translate(-8.677 -3.161)"/>
                <path id="Path_4559" d="M17.644 7.425a.811.811 0 0 0 .475.056.883.883 0 0 0 .741-.987L18.111.748a.873.873 0 0 0-1.729.245l.749 5.747a.834.834 0 0 0 .512.685" class="cls-1" transform="translate(-3.459)"/>
                <path id="Path_4560" d="M6.78 10.913L3.355 6.245a.885.885 0 0 0-1.2-.173.8.8 0 0 0-.174 1.2l3.424 4.669a1.164 1.164 0 0 0 .322.261.829.829 0 0 0 .876-.088.887.887 0 0 0 .174-1.2" class="cls-1" transform="translate(-.378 -1.249)"/>
                <path id="Path_4561" d="M52.054 30.243a.887.887 0 0 0-.9-.812l-5.824.323a.887.887 0 0 0-.812.9.831.831 0 0 0 .491.731.947.947 0 0 0 .408.08l5.825-.322a.886.886 0 0 0 .811-.9" class="cls-1" transform="translate(-9.405 -6.217)"/>
            </g>
        </g>
        <g id="Group_3145" class="cls-2" transform="rotate(-33 529.94 -568.063)">
            <g id="Group_3144" clip-path="url(#clip-path-4)">
                <path id="Path_4564" d="M8.414 1.424L.906.013a.764.764 0 1 0-.282 1.5l7.507 1.41a.764.764 0 1 0 .282-1.5" class="cls-1" transform="translate(15.681 3.469)"/>
                <path id="Path_4565" d="M1.656.154L.905.013a.764.764 0 1 0-.282 1.5l.751.141a.764.764 0 1 0 .282-1.5" class="cls-1" transform="translate(27.694 5.726)"/>
                <path id="Path_4566" d="M4.429.387L2.565.037A2.11 2.11 0 0 0 .1 1.719l-.068.362a2.109 2.109 0 0 0 1.681 2.46l1.864.35a2.109 2.109 0 0 0 2.46-1.682l.068-.363A2.109 2.109 0 0 0 4.429.387m.112 2.541a.58.58 0 0 1-.676.462L2 3.04a.58.58 0 0 1-.463-.676L1.605 2a.581.581 0 0 1 .678-.463l1.863.35a.579.579 0 0 1 .462.677z" class="cls-1" transform="translate(10.074 40.013)"/>
                <path id="Path_4567" d="M30.813 3.823L10.714.048a2.765 2.765 0 0 0-3.224 2.2L.048 41.87a2.765 2.765 0 0 0 2.2 3.224l20.1 3.776a2.765 2.765 0 0 0 3.223-2.2l7.446-39.623a2.766 2.766 0 0 0-2.2-3.224m-6.741 42.56a1.234 1.234 0 0 1-1.44.985l-20.1-3.776a1.235 1.235 0 0 1-.985-1.439L8.992 2.534a1.235 1.235 0 0 1 1.44-.985l20.1 3.776a1.234 1.234 0 0 1 .985 1.44z" class="cls-1"/>
                <path id="Path_4568" d="M30.853 4.526L6.829.013a.764.764 0 0 0-.892.61L.013 32.155a.765.765 0 0 0 .61.892l24.025 4.514a.765.765 0 0 0 .892-.61l5.923-31.533a.765.765 0 0 0-.61-.892m-6.674 31.392L1.656 31.687 7.3 1.656l22.52 4.231z" class="cls-1" transform="translate(1.076 4.17)"/>
            </g>
        </g>
        <g id="Group_3389" class="cls-2" transform="rotate(14.98 -174.552 2148.323)">
            <g id="Group_3388" clip-path="url(#clip-path-5)">
                <path id="Path_4715" d="M39.608 14.027l-4.8-.909a6 6 0 0 0-2.933-10.332 5.391 5.391 0 0 0-4.966 1.348A23.341 23.341 0 0 0 23.384 8.9a23.293 23.293 0 0 0-1.539-5.726A5.388 5.388 0 0 0 17.716.106a6 6 0 0 0-6.5 8.546l-4.8-.908A3.606 3.606 0 0 0 2.2 10.613l-.447 2.36a3.608 3.608 0 0 0 1.729 3.784L.063 34.818a3.605 3.605 0 0 0 2.87 4.209l28.477 5.391a3.606 3.606 0 0 0 4.21-2.87l3.419-18.06A3.608 3.608 0 0 0 42.03 20.6l.447-2.36a3.607 3.607 0 0 0-2.869-4.21m-14.236-3.777c2.676-4.245 3.638-5.565 6.057-5.107a3.6 3.6 0 0 1-1.34 7.08l-5.327-1.009.61-.964m-8.1-7.788c2.416.458 2.828 2.035 3.768 6.967l.215 1.122-5.326-1.008a3.6 3.6 0 0 1 1.34-7.081m-4.37 36l-9.519-1.8a1.2 1.2 0 0 1-.957-1.4L5.8 17.407l10.7 2.025zm4.049-21.4L5.069 14.823a1.2 1.2 0 0 1-.956-1.4l.447-2.36a1.2 1.2 0 0 1 1.4-.956l11.879 2.248zm3.031 22.745l-4.721-.894L20.2 12.8l4.72.893zM33.26 41.1a1.2 1.2 0 0 1-1.4.957l-9.519-1.8 3.6-19.037 10.7 2.025zm6.41-20.95a1.2 1.2 0 0 1-1.4.957l-11.881-2.248.893-4.72 11.878 2.248a1.2 1.2 0 0 1 .957 1.4z" class="cls-1"/>
            </g>
        </g>
        <path id="fidiplus-fill" fill="#28c5cc" d="M16.9.7l3.2 10.5a.988.988 0 0 0 .7.7l10.5 3.2a1.006 1.006 0 0 1 0 1.9l-10.5 3.2a.988.988 0 0 0-.7.7l-3.2 10.5a1.006 1.006 0 0 1-1.9 0l-3.2-10.5a.988.988 0 0 0-.7-.7L.7 16.9a1.006 1.006 0 0 1 0-1.9l10.5-3.2a.988.988 0 0 0 .7-.7L15.1.6a.956.956 0 0 1 1.8.1z" opacity="0.4" transform="translate(513.975 191.988)"/>
    </g>
</svg>
