<svg xmlns="http://www.w3.org/2000/svg" width="189" height="57">
    <defs>
        <style>
            .cls-4{fill:#232326}
        </style>
    </defs>
    <g id="Group_3698" data-name="Group 3698" transform="translate(-1313.5 -622)">
        <rect id="Rectangle_1585" data-name="Rectangle 1585" width="188" height="56" rx="9" transform="translate(1314 622.5)" style="fill:#fff;stroke:#909096"/>
        <g id="Group_3679" data-name="Group 3679" transform="translate(1010.234 137.942)">
            <path id="Path_5086" data-name="Path 5086" d="M337.5 515.725h-4.311l-.708-.965.708-7.656 3.281-12.932 16.6.193 1.866.515.45 1.158.064 33.326-.257 1.158-1.351.772h-13.637l-1.415-8.235-.579-6.884z" style="fill:#e0e0e6"/>
            <path id="Path_5087" data-name="Path 5087" d="m336.216 494.3-1.8 5.79-1.094 4.439-.772 9.715.322 1.48 5.469.193.45 7.141 1.029 8.235h-22.132l-1.287-.643-.322-2.123.064-33 .965-1.094z" style="fill:#00a3e2"/>
            <g id="Group_3678" data-name="Group 3678">
                <g id="Group_3677" data-name="Group 3677">
                    <path id="Path_5088" data-name="Path 5088" d="M344.678 503.649a.788.788 0 0 0-.787.787v2.664a.788.788 0 0 0 .787.787.774.774 0 0 0 .776-.787v-2.667a.774.774 0 0 0-.776-.784z"/>
                    <path id="Path_5089" data-name="Path 5089" d="M326.866 507.89a.788.788 0 0 0 .788-.787v-2.667a.787.787 0 0 0-1.575 0v2.664a.788.788 0 0 0 .787.79z"/>
                </g>
                <path id="Path_5090" data-name="Path 5090" d="M355.765 496.47v-.263a3.771 3.771 0 0 0-.05-.571 1.932 1.932 0 0 0-.179-.544 1.84 1.84 0 0 0-.8-.8 1.969 1.969 0 0 0-.543-.179 3.787 3.787 0 0 0-.572-.05H317.915a3.788 3.788 0 0 0-.572.05 1.969 1.969 0 0 0-.543.179 1.841 1.841 0 0 0-.8.8 1.931 1.931 0 0 0-.179.544 3.771 3.771 0 0 0-.05.571v33.309a3.785 3.785 0 0 0 .05.572 1.931 1.931 0 0 0 .179.544 1.827 1.827 0 0 0 .337.463 1.805 1.805 0 0 0 .463.336 1.939 1.939 0 0 0 .543.18 3.927 3.927 0 0 0 .572.05h35.702a3.927 3.927 0 0 0 .572-.05 1.939 1.939 0 0 0 .543-.18 1.805 1.805 0 0 0 .463-.336 1.827 1.827 0 0 0 .337-.463 1.932 1.932 0 0 0 .179-.544 3.784 3.784 0 0 0 .05-.572v-32.775c.005-.09.005-.18.004-.271zm-37.275 34.485h-.556a3.318 3.318 0 0 1-.466-.039 1.223 1.223 0 0 1-.346-.114 1.1 1.1 0 0 1-.489-.488 1.244 1.244 0 0 1-.113-.349 3.126 3.126 0 0 1-.039-.464V496.225a3.2 3.2 0 0 1 .039-.465 1.245 1.245 0 0 1 .113-.346 1.125 1.125 0 0 1 .489-.489 1.234 1.234 0 0 1 .346-.113 3.166 3.166 0 0 1 .466-.039h17.739a34.78 34.78 0 0 0-2.739 9.452 90.384 90.384 0 0 0-1.065 10.047l-.015.315a1.557 1.557 0 0 0 .391 1.209 1.6 1.6 0 0 0 1.2.47h4.091c.239 0 .371 0 .371.46 0 1.875.07 3.8.2 5.728a20.188 20.188 0 0 1-2.375.139 15.765 15.765 0 0 1-8.594-2.229 8.812 8.812 0 0 1-2.491-2.237.615.615 0 0 0-1.032.671c.133.205 3.357 5.025 12.117 5.025a21.894 21.894 0 0 0 2.465-.137l.005.075a75.3 75.3 0 0 0 .994 7.2zm36.566-1.973v.515a3.155 3.155 0 0 1-.039.466 1.251 1.251 0 0 1-.113.347 1.116 1.116 0 0 1-.206.283 1.1 1.1 0 0 1-.285.206 1.189 1.189 0 0 1-.344.112 3.19 3.19 0 0 1-.469.04h-13.145a71.765 71.765 0 0 1-1.022-7.3c0-.05-.007-.1-.011-.15 6.016-1.07 8.393-4.533 8.508-4.706a.615.615 0 0 0-1.024-.683 9.1 9.1 0 0 1-2.533 2.24 14.409 14.409 0 0 1-5.041 1.908 84.058 84.058 0 0 1-.19-5.543 1.516 1.516 0 0 0-1.6-1.693h-4.094a.45.45 0 0 1-.3-.082.413.413 0 0 1-.057-.29c0-.078.009-.189.016-.332a88.827 88.827 0 0 1 1.052-9.916 32.765 32.765 0 0 1 2.892-9.64H353.6a3.118 3.118 0 0 1 .464.039 1.227 1.227 0 0 1 .348.113 1.126 1.126 0 0 1 .488.487 1.252 1.252 0 0 1 .114.35 3.129 3.129 0 0 1 .039.464v.515z"/>
            </g>
        </g>
        <g id="Group_3697" data-name="Group 3697" transform="translate(1358.91 611.319)">
            <path id="Path_5099" data-name="Path 5099" class="cls-4" d="m20.934 30.681 4.922 13.078 4.91-13.078H34.6v17.062h-2.955v-5.625l.293-7.523L26.9 47.743h-2.122L19.75 34.607l.293 7.511v5.625H17.09V30.681z"/>
            <path id="Path_5100" data-name="Path 5100" class="cls-4" d="M45.4 47.743a4.359 4.359 0 0 1-.328-1.183 4.791 4.791 0 0 1-6.446.328 3.49 3.49 0 0 1-1.207-2.695 3.6 3.6 0 0 1 1.506-3.112A7.3 7.3 0 0 1 43.235 40h1.746v-.832a2.223 2.223 0 0 0-.551-1.576A2.186 2.186 0 0 0 42.754 37a2.5 2.5 0 0 0-1.593.487 1.5 1.5 0 0 0-.621 1.236h-2.848a3.159 3.159 0 0 1 .691-1.951 4.6 4.6 0 0 1 1.881-1.424 6.6 6.6 0 0 1 2.654-.516 5.321 5.321 0 0 1 3.551 1.119 3.994 3.994 0 0 1 1.36 3.147v5.719a6.487 6.487 0 0 0 .48 2.73v.2zm-3.129-2.05a3.236 3.236 0 0 0 1.588-.411 2.736 2.736 0 0 0 1.119-1.1V41.79h-1.532a4.2 4.2 0 0 0-2.379.551 1.785 1.785 0 0 0-.8 1.559 1.665 1.665 0 0 0 .545 1.306 2.112 2.112 0 0 0 1.462.487z"/>
            <path id="Path_5101" data-name="Path 5101" class="cls-4" d="M56.021 45.7a2.576 2.576 0 0 0 1.769-.621 2.12 2.12 0 0 0 .75-1.535h2.684a4.191 4.191 0 0 1-.739 2.209 4.836 4.836 0 0 1-1.875 1.627 5.578 5.578 0 0 1-2.554.6 5.4 5.4 0 0 1-4.219-1.723 6.832 6.832 0 0 1-1.559-4.757v-.3a6.719 6.719 0 0 1 1.547-4.634 5.355 5.355 0 0 1 4.219-1.741 5.208 5.208 0 0 1 3.685 1.319 4.721 4.721 0 0 1 1.495 3.463H58.54a2.6 2.6 0 0 0-.744-1.793 2.4 2.4 0 0 0-1.775-.7 2.506 2.506 0 0 0-2.133 1 5.115 5.115 0 0 0-.762 3.041v.457a5.2 5.2 0 0 0 .744 3.077 2.506 2.506 0 0 0 2.151 1.011z"/>
        </g>
    </g>
</svg>
