<svg id="Group_3479" data-name="Group 3479" xmlns="http://www.w3.org/2000/svg" width="188" height="56">
    <defs>
        <clipPath id="clip-path">
            <path id="Rectangle_1574" data-name="Rectangle 1574" style="fill:none" d="M0 0h188v56H0z"/>
        </clipPath>
        <style>
            .cls-4{fill:#fff}
        </style>
    </defs>
    <g id="Group_3478" data-name="Group 3478" style="clip-path:url(#clip-path)">
        <path id="Path_4990" data-name="Path 4990" d="M6.963 55A5.988 5.988 0 0 1 1 49V7a5.988 5.988 0 0 1 5.963-6h174.074A5.988 5.988 0 0 1 187 7v42a5.988 5.988 0 0 1-5.963 6z"/>
        <path id="Path_4991" data-name="Path 4991" d="M181.037 2A4.987 4.987 0 0 1 186 7v42a4.987 4.987 0 0 1-4.963 5H6.963A4.987 4.987 0 0 1 2 49V7a4.987 4.987 0 0 1 4.963-5h174.074m0-2H6.963A6.981 6.981 0 0 0 0 7v42a6.981 6.981 0 0 0 6.963 7h174.074A6.981 6.981 0 0 0 188 49V7a6.981 6.981 0 0 0-6.963-7" style="fill:#a6a6a6"/>
        <path id="Path_4992" data-name="Path 4992" class="cls-4" d="M33.729 17.653a3.711 3.711 0 0 1-.223 1.142 2.618 2.618 0 0 1-.571.85 2.4 2.4 0 0 1-.864.543 3.365 3.365 0 0 1-1.155.195h-.571v-1.142h.571a2.976 2.976 0 0 0 .752-.084 1.158 1.158 0 0 0 .529-.292 1.266 1.266 0 0 0 .306-.515 3.276 3.276 0 0 0 .1-.794v-2.785h1.128zm-1.393-4.832.822-.836.835.836-.835.836z"/>
        <path id="Rectangle_1573" data-name="Rectangle 1573" class="cls-4" transform="translate(34.968 11.373)" d="M0 0h1.142v6.559H0z"/>
        <path id="Path_4993" data-name="Path 4993" class="cls-4" d="M40.19 11.2a.7.7 0 0 1 1.393 0 .628.628 0 0 1-.167.446.781.781 0 0 1-1 0 .628.628 0 0 1-.223-.446m1.254 6.657H40.26V12.57h1.184z"/>
        <path id="Path_4994" data-name="Path 4994" class="cls-4" d="M48.42 14.492a4.449 4.449 0 0 1-.362 1.838 2.684 2.684 0 0 1-1.03 1.212 3.065 3.065 0 0 1-3.092 0 2.665 2.665 0 0 1-1.044-1.2 4.169 4.169 0 0 1-.376-1.81v-.46a4.449 4.449 0 0 1 .362-1.838 2.911 2.911 0 0 1 1.044-1.226 3.065 3.065 0 0 1 3.092 0 2.785 2.785 0 0 1 1.03 1.2 4.238 4.238 0 0 1 .376 1.866zm-1.239-.418a3.152 3.152 0 0 0-.446-1.81 1.46 1.46 0 0 0-1.267-.627 1.39 1.39 0 0 0-1.253.627 3.091 3.091 0 0 0-.474 1.81v.4a3.149 3.149 0 0 0 .46 1.81 1.474 1.474 0 0 0 1.281.641 1.392 1.392 0 0 0 1.253-.627 3.141 3.141 0 0 0 .446-1.824z"/>
        <path id="Path_4995" data-name="Path 4995" class="cls-4" d="M53.253 16.038a.848.848 0 0 0-.334-.724 3.545 3.545 0 0 0-1.184-.515 5.937 5.937 0 0 1-1.393-.585 1.811 1.811 0 0 1-.974-1.588 1.724 1.724 0 0 1 .7-1.392 2.783 2.783 0 0 1 1.824-.557 2.918 2.918 0 0 1 1.323.278 2.189 2.189 0 0 1 .919.78 2.072 2.072 0 0 1 .321 1.114h-1.23a1.14 1.14 0 0 0-.348-.877 1.463 1.463 0 0 0-1-.307 1.521 1.521 0 0 0-.933.251.877.877 0 0 0-.334.724.754.754 0 0 0 .362.655 4.041 4.041 0 0 0 1.184.515 5.553 5.553 0 0 1 1.392.557 2.16 2.16 0 0 1 .739.724 1.965 1.965 0 0 1 .236.961 1.685 1.685 0 0 1-.682 1.393 2.989 2.989 0 0 1-1.852.515 3.638 3.638 0 0 1-1.393-.279 2.542 2.542 0 0 1-1.016-.794 1.959 1.959 0 0 1-.349-1.169h1.24a1.142 1.142 0 0 0 .39.933 1.781 1.781 0 0 0 1.156.334 1.5 1.5 0 0 0 .974-.265.848.848 0 0 0 .265-.682"/>
        <path id="Path_4996" data-name="Path 4996" class="cls-4" d="M63.112 17.932h-.125a3.71 3.71 0 0 1-.683 0 2.829 2.829 0 0 1-.6-.209 2.022 2.022 0 0 1-.5-.348 1.82 1.82 0 0 1-.348-.515 1.119 1.119 0 0 1-.278.292 1.68 1.68 0 0 1-.376.223 1.969 1.969 0 0 1-.4.125h-.422a1.848 1.848 0 0 1-.682-.125 1.6 1.6 0 0 1-.571-.362 1.669 1.669 0 0 1-.39-.571 1.869 1.869 0 0 1-.153-.766 1.91 1.91 0 0 1 .195-.863 2.484 2.484 0 0 1 .487-.655 3.393 3.393 0 0 1 .724-.473 8.476 8.476 0 0 1 .822-.349l-.1-.431 1.1-.265.836 3.231a1.011 1.011 0 0 0 .237.473 1.134 1.134 0 0 0 .362.279.977.977 0 0 0 .39.125h.473zm-2.785-2.256a.841.841 0 0 0 0-.265 1.662 1.662 0 0 0 0-.264.432.432 0 0 0-.1-.32c-.1-.112 0-.237-.112-.376a3.642 3.642 0 0 0-1.1.529.877.877 0 0 0-.376.724.513.513 0 0 0 .084.292.5.5 0 0 0 .194.223.777.777 0 0 0 .265.125.689.689 0 0 0 .293 0 1.378 1.378 0 0 0 .57-.195.732.732 0 0 0 .265-.473z"/>
        <path id="Path_4997" data-name="Path 4997" class="cls-4" d="m69.1 16.122-.153.1-.335.223a.773.773 0 0 0 .14.209l.195.111H70.1v1.125h-.836a2.056 2.056 0 0 1-.975-.236 1.7 1.7 0 0 1-.668-.7l-.752.335c-.278.116-.562.218-.85.306s-.6.153-.905.209a5.122 5.122 0 0 1-.933.083h-1.389V16.86h1.393a4.77 4.77 0 0 0 .961-.1 7.855 7.855 0 0 0 .989-.236 6.155 6.155 0 0 0 .933-.321 7.051 7.051 0 0 0 .78-.348l-.46-.139-.543-.251-.5-.139-.46-.125-.4-.084a.972.972 0 0 0-.264 0h-.182a.34.34 0 0 0-.153.084.6.6 0 0 0-.111.153.66.66 0 0 0-.112.223l-1.044-.321a3.326 3.326 0 0 1 .209-.515 1.82 1.82 0 0 1 .306-.418 1.29 1.29 0 0 1 .418-.278 1.311 1.311 0 0 1 .543-.1l.362.126.488.139.6.181.641.223.613.223.543.2.4.153h.209zm-4.916-4 .808-.822.849.836-.835.822z"/>
        <path id="Path_4998" data-name="Path 4998" class="cls-4" d="M71.83 16.859a.177.177 0 0 1 .139 0 .16.16 0 0 1 0 .125v.78a.149.149 0 0 1 0 .139.177.177 0 0 1-.139 0h-1.894a.152.152 0 0 1-.181-.119.162.162 0 0 1 0-.062v-.779a.225.225 0 0 1 0-.126.186.186 0 0 1 .139 0z"/>
        <path id="Path_4999" data-name="Path 4999" class="cls-4" d="M73.724 16.859a.235.235 0 0 1 .139 0 .221.221 0 0 1 0 .125v.78a.177.177 0 0 1 0 .139.235.235 0 0 1-.139 0h-1.908a.152.152 0 0 1-.181-.119.161.161 0 0 1 0-.062v-.779a.225.225 0 0 1 0-.126.186.186 0 0 1 .139 0z"/>
        <path id="Path_5000" data-name="Path 5000" class="cls-4" d="M73.571 16.859h.585a1.836 1.836 0 0 0 .432 0 .94.94 0 0 0 .264-.139.581.581 0 0 0 .126-.223 1.855 1.855 0 0 0 0-.279v-1.392h1.128v1.309a.7.7 0 0 0 .181.529.818.818 0 0 0 .571.181h.167a.438.438 0 0 0 .195-.1.528.528 0 0 0 .153-.209.805.805 0 0 0 .069-.348V14.8h1.128v1.309a.7.7 0 0 0 .181.543.8.8 0 0 0 .627.209.558.558 0 0 0 .223 0 .41.41 0 0 0 .195-.111.81.81 0 0 0 .139-.209.879.879 0 0 0 0-.307V14.84h1.128v1.392a.657.657 0 0 0 .209.516 1.094 1.094 0 0 0 .627.153h.445v1.128H81.9a2.788 2.788 0 0 1-.808-.1 1.48 1.48 0 0 1-.6-.334 1.493 1.493 0 0 1-.543.32 1.67 1.67 0 0 1-.641.112 2.368 2.368 0 0 1-.738-.1A1.473 1.473 0 0 1 78 17.6a2.025 2.025 0 0 1-.529.32 1.826 1.826 0 0 1-.6.112 2.048 2.048 0 0 1-.752-.112 1.865 1.865 0 0 1-.571-.306 2.214 2.214 0 0 1-1.392.418h-.585z"/>
        <path id="Path_5001" data-name="Path 5001" class="cls-4" d="M84.767 14.074v.432a2.621 2.621 0 0 1 0 .376l.083.432v.766a2.086 2.086 0 0 1-.153.807 1.894 1.894 0 0 1-.4.571 1.77 1.77 0 0 1-.571.321 1.613 1.613 0 0 1-.626.111h-.933v-1.031h1.392a.631.631 0 0 0 .209-.083.882.882 0 0 0 .181-.209.952.952 0 0 0 0-.376 1.753 1.753 0 0 0 0-.251v-.961a.4.4 0 0 0-.07-.278 1.27 1.27 0 0 0 0-.2zm-1.936-1.838.822-.822.835.836-.835.822z"/>
        <path id="Path_5002" data-name="Path 5002" class="cls-4" d="M97.217 14.784v1.393a.811.811 0 0 0 0 .278.532.532 0 0 0 .126.181.343.343 0 0 0 .167.112.439.439 0 0 0 .167.069h.543v1.128h-.613l-.362-.069-.334-.126a1.1 1.1 0 0 1-.292-.209 2.036 2.036 0 0 1-1.393.418h-5.153a2.021 2.021 0 0 1-.64-.111 1.376 1.376 0 0 1-.529-.335 1.324 1.324 0 0 1-.181-.208 1.6 1.6 0 0 1-.307-.669 1.7 1.7 0 0 1 0-.473 2.218 2.218 0 0 1 0-.5.921.921 0 0 1 .1-.5c.1-.167 0-.292.111-.4s0-.195 0-.223l.543.181.543.167a.389.389 0 0 1-.1.293l-.084.348v.362a2.6 2.6 0 0 0 0 .279.883.883 0 0 0 0 .362.437.437 0 0 0 .153.195.335.335 0 0 0 .181.1h5.4a1.355 1.355 0 0 0 .431 0 .482.482 0 0 0 .265-.139.457.457 0 0 0 .1-.334v-1.56zm-5.417-.376-.766-.766.752-.794.78.794zm1.908 0-.766-.78.752-.78.794.78z"/>
        <path id="Path_5003" data-name="Path 5003" class="cls-4" d="M100.072 16.859a.177.177 0 0 1 .139 0 .16.16 0 0 1 0 .125v.78a.149.149 0 0 1 0 .139.177.177 0 0 1-.139 0h-1.894a.152.152 0 0 1-.178-.119.161.161 0 0 1 0-.062v-.779a.225.225 0 0 1 0-.126.186.186 0 0 1 .139 0z"/>
        <path id="Path_5004" data-name="Path 5004" class="cls-4" d="M101.966 16.859a.235.235 0 0 1 .139 0 .222.222 0 0 1 0 .125v.78a.177.177 0 0 1 0 .139.235.235 0 0 1-.139 0h-1.908a.152.152 0 0 1-.181-.119.162.162 0 0 1 0-.062v-.779a.225.225 0 0 1 0-.126.186.186 0 0 1 .139 0z"/>
        <path id="Path_5005" data-name="Path 5005" class="cls-4" d="M101.826 17.932V16.86h1.866a4.286 4.286 0 0 0 .641 0 2.233 2.233 0 0 0 .417-.112.837.837 0 0 0 .237-.153.635.635 0 0 0 .125-.167 4.81 4.81 0 0 1-1.086 0 2.035 2.035 0 0 1-.821-.279 1.391 1.391 0 0 1-.516-.557 1.681 1.681 0 0 1-.181-.821 1.763 1.763 0 0 1 .14-.724 1.87 1.87 0 0 1 .4-.669 1.781 1.781 0 0 1 .6-.4 1.726 1.726 0 0 1 .752-.125 2.323 2.323 0 0 1 .655.125 1.916 1.916 0 0 1 .487.307 1.7 1.7 0 0 1 .334.431 2.491 2.491 0 0 1 .223.53 4.671 4.671 0 0 1 .126.6 5.045 5.045 0 0 1 0 .627v.348a2.8 2.8 0 0 1-.251 1.045 1.863 1.863 0 0 1-.571.654 2.526 2.526 0 0 1-.794.334 5.035 5.035 0 0 1-.933.084zm1.6-6.838.808-.835.85.849-.836.822zm1.017 2.883a1.224 1.224 0 0 0-.32 0 .65.65 0 0 0-.279.139.586.586 0 0 0-.181.223.554.554 0 0 0-.069.306.584.584 0 0 0 .417.571 2.159 2.159 0 0 0 1.2 0V14.8a2.078 2.078 0 0 0-.111-.418.835.835 0 0 0-.223-.32.818.818 0 0 0-.432-.084"/>
        <path id="Path_5006" data-name="Path 5006" class="cls-4" d="M109.541 17.931a4.975 4.975 0 0 1-.863 0 2.1 2.1 0 0 1-.6-.181 1.07 1.07 0 0 1-.39-.306 1.525 1.525 0 0 1-.237-.445 3.092 3.092 0 0 1-.1-.557v-5.069h1.149v4.3a3.362 3.362 0 0 0 0 .585.6.6 0 0 0 .125.348.625.625 0 0 0 .32.153 3.329 3.329 0 0 0 .6 0z"/>
        <path id="Path_5007" data-name="Path 5007" class="cls-4" d="M112.8 14.074a.412.412 0 0 1 0 .14v1.866a2.091 2.091 0 0 1-.153.808 1.938 1.938 0 0 1-.4.57 1.77 1.77 0 0 1-.571.321 1.656 1.656 0 0 1-.627.111h-1.7v-1.03h2.151a.655.655 0 0 0 .209-.084 1.338 1.338 0 0 0 .181-.209.966.966 0 0 0 .07-.376 1.737 1.737 0 0 0 0-.25v-.307a3.1 3.1 0 0 0 0-.334v-.794zm-2.451 6.295-.835-.724.752-.78.779.78zm1.908 0-.849-.724.752-.78.779.78z"/>
        <path id="Path_5008" data-name="Path 5008" class="cls-4" d="M116.769 17.653a3.693 3.693 0 0 1-.237 1.142 2.57 2.57 0 0 1-.557.849 2.437 2.437 0 0 1-.877.544 3.3 3.3 0 0 1-1.156.194h-.557v-1.141h.557a3.184 3.184 0 0 0 .766-.084 1.048 1.048 0 0 0 .515-.292 1.276 1.276 0 0 0 .307-.516 2.709 2.709 0 0 0 .055-.793V14.77h1.142z"/>
        <path id="Path_5009" data-name="Path 5009" class="cls-4" d="M119.3 17.945h-.682l-.362-.084-.376-.111-.544-.167.321-1.085a8.279 8.279 0 0 0 .821.236 4.71 4.71 0 0 0 .808.14 2 2 0 0 0 .655 0 .463.463 0 0 0 .362-.265.194.194 0 0 0 0-.153.7.7 0 0 0-.1-.209l-1.7-2.465.947-.627.32.474v.1l.14.209.237.348.362.543.64.64a1.913 1.913 0 0 1 .293.725 1.4 1.4 0 0 1-.307 1.045 1.176 1.176 0 0 1-.306.278 2.08 2.08 0 0 1-.78.306 4.262 4.262 0 0 1-.752.125"/>
        <path id="Path_5010" data-name="Path 5010" class="cls-4" d="M53.935 39.851 52.1 36.175a1.965 1.965 0 0 0-1.755-1.087h-19.29a.794.794 0 0 0-.791.8.8.8 0 0 0 .08.345l1.24 2.409a3.87 3.87 0 0 0 3.454 2.089h18.34a.613.613 0 0 0 .557-.877"/>
        <path id="Path_5011" data-name="Path 5011" class="cls-4" d="M43.755 42.65h-2.883a.515.515 0 0 0-.515.5v2.786a.515.515 0 0 0 .515.5h2.883a.515.515 0 0 0 .515-.5v-2.785a.515.515 0 0 0-.515-.5"/>
        <path id="Path_5012" data-name="Path 5012" class="cls-4" d="M120.473 35.088h-21a.348.348 0 0 1-.358-.339.36.36 0 0 1 .023-.134 8.553 8.553 0 0 0 .488-2.883v-2.883a.654.654 0 0 0-.655-.654h-4.456a.654.654 0 0 0-.654.654v2.925a3.343 3.343 0 0 1-3.343 3.314h-1.935a.348.348 0 0 1-.353-.344.385.385 0 0 1 .018-.116 8.571 8.571 0 0 0 .474-2.785v-2.924a.654.654 0 0 0-.654-.655h-4.513a.668.668 0 0 0-.668.655V31.8a3.328 3.328 0 0 1-3.342 3.315H66.594a1.963 1.963 0 0 0-1.755 1.085L63 39.879a.612.612 0 0 0 .557.877h15.988a9.244 9.244 0 0 0 7.1-3.287l1.281 2.563a1.24 1.24 0 0 0 1.114.682h1.393a9.207 9.207 0 0 0 7.381-3.649l1.309 2.953a1.238 1.238 0 0 0 1.128.738h16.239a3.915 3.915 0 0 0 3.468-2.1l1.2-2.423a.779.779 0 0 0-.682-1.142"/>
        <path id="Path_5013" data-name="Path 5013" class="cls-4" d="M96.618 42.65h-7.771a.515.515 0 0 0-.515.5v2.786a.515.515 0 0 0 .515.5h7.771a.515.515 0 0 0 .515-.5v-2.785a.515.515 0 0 0-.515-.5"/>
        <path id="Path_5014" data-name="Path 5014" class="cls-4" d="M53.852 42.65h-7.771a.515.515 0 0 0-.515.5v2.786a.515.515 0 0 0 .515.5h7.771a.515.515 0 0 0 .515-.5v-2.785a.515.515 0 0 0-.515-.5"/>
        <path id="Path_5015" data-name="Path 5015" class="cls-4" d="M77.386 42.65h-2.869a.5.5 0 0 0-.515.487v2.8a.5.5 0 0 0 .5.5h2.883a.5.5 0 0 0 .515-.487v-2.8a.5.5 0 0 0-.5-.5h-.014"/>
        <path id="Path_5016" data-name="Path 5016" class="cls-4" d="M60.87 22.778h-4.777a.5.5 0 0 0-.5.487v16.92a.558.558 0 0 0 .557.544h4.665a.544.544 0 0 0 .543-.544v-16.92a.487.487 0 0 0-.487-.487"/>
        <path id="Path_5017" data-name="Path 5017" class="cls-4" d="M149.007 24.978a9.749 9.749 0 0 1 2.159 11.684c5.194-8.676 3.23-15.5 3.23-15.5-11.28-5.654-17.616-.835-17.616-.835a18.237 18.237 0 0 1 12.227 4.651"/>
        <path id="Path_5018" data-name="Path 5018" class="cls-4" d="M136.237 26.844a9.608 9.608 0 0 1 11.628-2.172c-8.634-5.223-15.416-3.259-15.416-3.259-5.57 11.35-.835 17.714-.835 17.714a18.421 18.421 0 0 1 4.623-12.283"/>
        <path id="Path_5019" data-name="Path 5019" class="cls-4" d="M138.243 39.489a9.748 9.748 0 0 1-2.172-11.67c-5.167 8.662-3.217 15.5-3.217 15.5 11.28 5.654 17.6.835 17.6.835a18.212 18.212 0 0 1-12.213-4.665"/>
        <path id="Path_5020" data-name="Path 5020" class="cls-4" d="M155.692 25.312a18.4 18.4 0 0 1-4.637 12.288 9.6 9.6 0 0 1-11.615 2.172c8.621 5.222 15.416 3.245 15.416 3.245 5.627-11.336.836-17.7.836-17.7"/>
        <path id="Path_5021" data-name="Path 5021" class="cls-4" d="M151.681 8.768c-8.063.153-8.592 7.2-8.592 7.2 8.1.682 8.592-7.2 8.592-7.2"/>
    </g>
</svg>
