<svg id="Group_3477" data-name="Group 3477" xmlns="http://www.w3.org/2000/svg" width="188" height="56">
    <defs>
        <clipPath id="clip-path">
            <path id="Rectangle_1572" data-name="Rectangle 1572" style="fill:none" d="M0 0h188v56H0z"/>
        </clipPath>
        <style>
            .cls-4{fill:#fff}
        </style>
    </defs>
    <g id="Group_3476" data-name="Group 3476" style="clip-path:url(#clip-path)">
        <path id="Path_4970" data-name="Path 4970" d="M178 56H10A10 10 0 0 1 0 46V10A10 10 0 0 1 10 0h168a10 10 0 0 1 10 10v36a10 10 0 0 1-10 10" style="fill:#1c53f1"/>
        <path id="Path_4971" data-name="Path 4971" class="cls-4" d="M106.908 18.185a.738.738 0 1 0 .738.738.737.737 0 0 0-.738-.738"/>
        <path id="Path_4972" data-name="Path 4972" class="cls-4" d="M108.467 18.185a.738.738 0 1 0 .738.738.737.737 0 0 0-.738-.738"/>
        <path id="Path_4973" data-name="Path 4973" class="cls-4" d="M28.964 16.667a2.8 2.8 0 0 1-.125.891 1.244 1.244 0 0 1-.348.585 1.383 1.383 0 0 1-.585.334 3.108 3.108 0 0 1-.864.1h-.682v1.086h.682a3.626 3.626 0 0 0 1.226-.195 2.787 2.787 0 0 0 .933-.585 2.635 2.635 0 0 0 .6-.919 3.9 3.9 0 0 0 .25-1.2v-3.19h-1.087z"/>
        <path id="Rectangle_1570" data-name="Rectangle 1570" class="cls-4" transform="translate(31.29 9.913)" d="M0 0h1.086v7.088H0z"/>
        <path id="Rectangle_1571" data-name="Rectangle 1571" class="cls-4" transform="translate(37.947 11.166)" d="M0 0h1.295v5.71H0z"/>
        <path id="Path_4974" data-name="Path 4974" class="cls-4" d="M46.539 10.748a2.938 2.938 0 0 0-2.785-1.754 3.123 3.123 0 0 0-1.686.459 3.019 3.019 0 0 0-1.127 1.393 4.8 4.8 0 0 0-.4 2.005v.432a4.609 4.609 0 0 0 .4 1.977 3 3 0 0 0 1.141 1.309 3.318 3.318 0 0 0 3.371 0 2.942 2.942 0 0 0 1.128-1.323 4.7 4.7 0 0 0 .389-1.991l-.027-.5a4.79 4.79 0 0 0-.4-2.006m-.989 2.507a3.481 3.481 0 0 1-.474 1.991 1.6 1.6 0 0 1-1.392.683 1.629 1.629 0 0 1-1.393-.7 3.381 3.381 0 0 1-.487-1.977v-.446a3.26 3.26 0 0 1 .5-1.949 1.726 1.726 0 0 1 2.785 0 3.351 3.351 0 0 1 .488 1.977z"/>
        <path id="Path_4975" data-name="Path 4975" class="cls-4" d="M49.77 10.414a1.675 1.675 0 0 1 1.017-.279 1.521 1.521 0 0 1 1.086.349 1.173 1.173 0 0 1 .39.947h1.392a2.138 2.138 0 0 0-.362-1.226 2.351 2.351 0 0 0-.988-.849 3.464 3.464 0 0 0-1.393-.293 3.133 3.133 0 0 0-1.991.6 1.894 1.894 0 0 0-.753 1.546 2 2 0 0 0 1.059 1.741 5.551 5.551 0 0 0 1.49.626 4.536 4.536 0 0 1 1.3.557.975.975 0 0 1 .362.794.906.906 0 0 1-.376.752 1.627 1.627 0 0 1-1.058.292 1.951 1.951 0 0 1-1.254-.362 1.266 1.266 0 0 1-.431-1.03h-1.398a2.119 2.119 0 0 0 .39 1.281 2.653 2.653 0 0 0 1.1.863 3.785 3.785 0 0 0 1.546.307 3.245 3.245 0 0 0 2.019-.571 1.826 1.826 0 0 0 .641-1.546 2.163 2.163 0 0 0-.265-1.044 2.188 2.188 0 0 0-.807-.78 5.734 5.734 0 0 0-1.393-.613 4.469 4.469 0 0 1-1.295-.557.864.864 0 0 1-.4-.71.948.948 0 0 1 .376-.794"/>
        <path id="Path_4976" data-name="Path 4976" class="cls-4" d="M84.737 13.784c-.083-.167 0-.306-.083-.432a.5.5 0 0 1-.084-.32v-.167l-.947.348v.209q-.008.153 0 .306l.084.376v.738a2.166 2.166 0 0 1 0 .279.94.94 0 0 1-.084.446.774.774 0 0 1-.223.25.615.615 0 0 1-.25.1h-1.685a1.2 1.2 0 0 1-.738-.195.7.7 0 0 1-.251-.6v-1.547H79.39v1.588a.926.926 0 0 1-.084.362.651.651 0 0 1-.167.251.524.524 0 0 1-.237.139.806.806 0 0 1-.25 0 1 1 0 0 1-.7-.209.849.849 0 0 1-.208-.641v-1.49H76.66v1.476a1.219 1.219 0 0 1-.069.432.848.848 0 0 1-.181.306.556.556 0 0 1-.237.126h-.195a.919.919 0 0 1-.668-.209.817.817 0 0 1-.223-.641v-1.49H74v1.574a2.525 2.525 0 0 1 0 .348.573.573 0 0 1-.153.251.718.718 0 0 1-.306.167 1.71 1.71 0 0 1-.515 0h-.432v-.084h-1.323a.564.564 0 0 1-.223-.111.61.61 0 0 1-.167-.237l.487-.278.265-.168-.125-.919-.989-.362-.738-.278-.557-.209-.46-.167-.445-.167-.5-.167a2.212 2.212 0 0 0-.571-.1h-.222a1.386 1.386 0 0 0-.627.279 1.689 1.689 0 0 0-.432.5 2.7 2.7 0 0 0-.292.64l.989.349a1.606 1.606 0 0 1 .181-.349.819.819 0 0 1 .25-.264.722.722 0 0 1 .307 0 1.6 1.6 0 0 1 .4 0l2.465.863a5.689 5.689 0 0 1-.515.279l-.641.264c-.222.084-.459.154-.7.237a2.253 2.253 0 0 1-.724.209l-.738.125a4.168 4.168 0 0 1-.724 0H63.9v.112h-.418a1.39 1.39 0 0 1-.445-.139 1.534 1.534 0 0 1-.4-.335 1.29 1.29 0 0 1-.279-.571l-.877-3.565-1 .237v.237a1.874 1.874 0 0 0 0 .237 6.86 6.86 0 0 0-.919.389 3.568 3.568 0 0 0-.78.544 2.887 2.887 0 0 0-.543.752 2.109 2.109 0 0 0-.209.947 2.288 2.288 0 0 0 .112.7 1.659 1.659 0 0 0 .306.557 2.041 2.041 0 0 0 .446.4 1.857 1.857 0 0 0 .515.223 2.1 2.1 0 0 0 .488 0h.194a2.326 2.326 0 0 0 .669-.154 2.462 2.462 0 0 0 .459-.278 1.389 1.389 0 0 0 .307-.376 1.849 1.849 0 0 0 .376.557 2.566 2.566 0 0 0 .529.4 3.444 3.444 0 0 0 .668.236 3.278 3.278 0 0 0 .739.084h.222v-.104h2.17a5.746 5.746 0 0 0 1.281-.14 11.558 11.558 0 0 0 1.239-.35 11.511 11.511 0 0 0 1.1-.459h.069a1.542 1.542 0 0 0 .432.543 1.973 1.973 0 0 0 .585.32 2.341 2.341 0 0 0 .71.111h.766V17h.5a2.81 2.81 0 0 0 .892-.125 1.741 1.741 0 0 0 .724-.348 1.823 1.823 0 0 0 .6.348 2.1 2.1 0 0 0 .808.139 1.843 1.843 0 0 0 .655-.139 1.9 1.9 0 0 0 .64-.376 1.8 1.8 0 0 0 .627.376 2.418 2.418 0 0 0 .822.125 2 2 0 0 0 .7-.125 1.4 1.4 0 0 0 .557-.39 1.5 1.5 0 0 0 .641.39 2.948 2.948 0 0 0 .891.125h1.5a2.112 2.112 0 0 0 .654-.111 1.754 1.754 0 0 0 1.017-.947 2 2 0 0 0 .167-.85V14.7c0-.139.07-.306 0-.459s.014-.293-.07-.46m-23.994 1.34a1.076 1.076 0 0 1-.46.292.975.975 0 0 1-.4.07.889.889 0 0 1-.766-.432.764.764 0 0 1-.126-.445 1.212 1.212 0 0 1 .446-.9 3.332 3.332 0 0 1 1.3-.669 3.706 3.706 0 0 0 .1.376c.1.139.027.265.1.4a.65.65 0 0 1 .07.334v.223a1.383 1.383 0 0 1 0 .223h.055a.925.925 0 0 1-.306.529"/>
        <path id="Path_4977" data-name="Path 4977" class="cls-4" d="M103.12 12.461a2.134 2.134 0 0 0-.362-.487 1.842 1.842 0 0 0-.515-.335 2 2 0 0 0-.683-.139h-.1a1.694 1.694 0 0 0-.7.139 1.587 1.587 0 0 0-.613.432 1.894 1.894 0 0 0-.418.627 2.042 2.042 0 0 0-.1.78 1.785 1.785 0 0 0 .182.849 1.38 1.38 0 0 0 .459.543 2.039 2.039 0 0 0 .71.293 4.241 4.241 0 0 0 .878.083h.626a.846.846 0 0 1-.1.237.883.883 0 0 1-.265.209 1.57 1.57 0 0 1-.473.153 4.214 4.214 0 0 1-.808.07h-1.812l-.4-.028h-.209a.9.9 0 0 1-.278-.084.767.767 0 0 1-.251-.223.653.653 0 0 1-.1-.39v-1.629H96.7v1.824a.48.48 0 0 1-.111.223.727.727 0 0 1-.307.2 1.634 1.634 0 0 1-.585.084h-6.712a.5.5 0 0 1-.251-.112.653.653 0 0 1-.222-.25.959.959 0 0 1-.1-.474 2.308 2.308 0 0 1 0-.39 2.626 2.626 0 0 1 .084-.431.648.648 0 0 0 .1-.4 1.948 1.948 0 0 0 .084-.279l-.515-.167-.516-.167a1.339 1.339 0 0 0 0 .237 7.408 7.408 0 0 0-.125.473 2.429 2.429 0 0 0-.111.571 2.592 2.592 0 0 0 0 .557 2.017 2.017 0 0 0 0 .515 1.51 1.51 0 0 0 .139.4 1.41 1.41 0 0 0 .181.321l.195.222a1.581 1.581 0 0 0 .585.362 1.809 1.809 0 0 0 .682.126h6.559a2.141 2.141 0 0 0 1.518-.5 1.134 1.134 0 0 0 .306.223 1.018 1.018 0 0 0 .335.153l.376.126h.738l1.727-.051a5.542 5.542 0 0 0 .682 0 3.055 3.055 0 0 0 .641-.139 2.589 2.589 0 0 0 .571-.237 1.578 1.578 0 0 0 .431-.362 1.63 1.63 0 0 0 .293-.5 1.679 1.679 0 0 0 .111-.669v-.682a5.333 5.333 0 0 0 0-.669 4.5 4.5 0 0 0-.125-.64 3.619 3.619 0 0 0-.237-.585m-.571 1.685h-1.072a1.811 1.811 0 0 1-.39-.111.749.749 0 0 1-.279-.223.66.66 0 0 1-.111-.39 1.157 1.157 0 0 1 .07-.4.864.864 0 0 1 .208-.278.658.658 0 0 1 .279-.14h.306a.832.832 0 0 1 .627.14.973.973 0 0 1 .265.4 2.148 2.148 0 0 1 .1.516z"/>
        <path id="Path_4978" data-name="Path 4978" class="cls-4" d="M109.874 13.353v-.487l-.738.348a1.043 1.043 0 0 1 0 .209 1.955 1.955 0 0 1 0 .306l.083.376v.738a2.6 2.6 0 0 1 0 .279.775.775 0 0 1-.1.445.6.6 0 0 1-.46.348h-1.434v.028a3.928 3.928 0 0 1-.473 0 .612.612 0 0 1-.349-.195.728.728 0 0 1-.153-.39V9.913h-1.086v5.445a2.584 2.584 0 0 0 .111.6 1.157 1.157 0 0 0 .627.78 1.87 1.87 0 0 0 .613.195 5.266 5.266 0 0 0 .71.055V17h.989a2.238 2.238 0 0 0 .654-.112 2.089 2.089 0 0 0 .585-.348 1.925 1.925 0 0 0 .418-.6 2 2 0 0 0 .167-.849v-.85l-.083-.459a.873.873 0 0 1-.084-.432"/>
        <path id="Path_4979" data-name="Path 4979" class="cls-4" d="M113.105 16.667a3.344 3.344 0 0 1-.111.891 1.525 1.525 0 0 1-.349.585 1.376 1.376 0 0 1-.6.334 3.088 3.088 0 0 1-.85.1h-.682v1.086h.682a3.781 3.781 0 0 0 1.226-.195 2.6 2.6 0 0 0 .919-.585 2.458 2.458 0 0 0 .6-.919 3.537 3.537 0 0 0 .25-1.2v-3.19h-1.086z"/>
        <path id="Path_4980" data-name="Path 4980" class="cls-4" d="m119.121 14.383-.78-1.17-.459-.7c-.112-.181-.237-.348-.237-.348v-.1l-.306-.459-.906.6.307.459v.1l.236.348.488.724.78 1.17a2.247 2.247 0 0 1 .209.39.638.638 0 0 1 0 .2.194.194 0 0 1 0 .083.2.2 0 0 1-.181.139 1.4 1.4 0 0 1-.474.126h-1.072l-.529-.084a1.519 1.519 0 0 1-.4-.167l-.474-.265-.543.947.474.265.334.153.39.084.348.167h.9l.293-.056a1.687 1.687 0 0 0 .389 0 2.318 2.318 0 0 0 .892-.278 1.4 1.4 0 0 0 .6-.627 1.265 1.265 0 0 0 .1-.515 1.685 1.685 0 0 0 0-.362 2.862 2.862 0 0 0-.376-.822"/>
        <path id="Path_4981" data-name="Path 4981" class="cls-4" d="M28.95 12.183a.738.738 0 1 0-.738-.738.737.737 0 0 0 .738.738"/>
        <path id="Path_4982" data-name="Path 4982" class="cls-4" d="M38.6 8.7a.738.738 0 1 0 .738.738.737.737 0 0 0-.738-.738"/>
        <path id="Path_4983" data-name="Path 4983" class="cls-4" d="M66.035 12.183a.738.738 0 1 0-.738-.738.737.737 0 0 0 .738.738"/>
        <path id="Path_4984" data-name="Path 4984" class="cls-4" d="M83.345 12.183a.738.738 0 1 0-.738-.738.737.737 0 0 0 .738.738"/>
        <path id="Path_4985" data-name="Path 4985" class="cls-4" d="M91.353 13.659a.738.738 0 1 0-.739-.738.737.737 0 0 0 .739.738"/>
        <path id="Path_4986" data-name="Path 4986" class="cls-4" d="M92.912 13.659a.738.738 0 1 0-.738-.738.737.737 0 0 0 .738.738"/>
        <path id="Path_4987" data-name="Path 4987" class="cls-4" d="M99.75 11a.738.738 0 1 0-.738-.738.737.737 0 0 0 .738.738"/>
        <path id="Path_4988" data-name="Path 4988" class="cls-4" d="M72.789 42.388A2.785 2.785 0 1 1 70 45.173a2.785 2.785 0 0 1 2.785-2.785m7.269 0a2.785 2.785 0 1 1-2.785 2.785 2.785 2.785 0 0 1 2.785-2.785m5.571 0a2.785 2.785 0 1 1-2.786 2.785 2.785 2.785 0 0 1 2.786-2.785m-31.236 0a2.785 2.785 0 1 1-2.785 2.785 2.785 2.785 0 0 1 2.785-2.785m-5.571 0a2.785 2.785 0 1 1-2.785 2.785 2.785 2.785 0 0 1 2.785-2.785m11.141 0a2.778 2.778 0 1 1-.014 0zM74.92 25.482a.654.654 0 0 1 .654.641V37.96a2.784 2.784 0 0 1-2.66 2.715h-2.27a.654.654 0 0 1-.64-.64V26.109a.654.654 0 0 1 .64-.641zm7.283 0a.653.653 0 0 1 .64.641v8.355a.656.656 0 0 0 .655.641h35.079a.641.641 0 0 1 .655.626v2.215a2.785 2.785 0 0 1-2.646 2.715H77.705a.418.418 0 0 1-.418-.417V26.15a.641.641 0 0 1 .641-.64zm-46.833 0a9.024 9.024 0 0 1 8.7 6.852c.445 1.768.417 2.785 1.921 2.785h16.256a.431.431 0 0 0 .418-.418v-.877a2.785 2.785 0 0 0-2.785-2.786h-7.228a5.568 5.568 0 0 1-4.289-1.81 6.708 6.708 0 0 1-.794-2.91v-.112a.64.64 0 0 1 .585-.682h11.572a9.159 9.159 0 0 1 5.835 1.518 7.935 7.935 0 0 1 2.786 6.183v6.824a.655.655 0 0 1-.641.64H44.338a5.709 5.709 0 0 1-5.57-5.779v-.85a3.161 3.161 0 0 0-3.313-3l-.113.007a3.2 3.2 0 0 0-3.409 2.983V34.911c0 4.916-2.576 5.779-4.929 5.779-.613 0-.641-.195-.641-.766v-5.57a9.024 9.024 0 0 1 9.01-8.871"/>
        <path id="Path_4989" data-name="Path 4989" class="cls-4" d="M155.454 20.719a14.928 14.928 0 0 1 5.932 9.567 14.6 14.6 0 0 1-3.078 11.991l-.1.125a.779.779 0 0 1-1.086.125.885.885 0 0 1-.153-.181 22.989 22.989 0 0 1-3.162-5.974 20 20 0 0 1-.445-4.066 6.7 6.7 0 0 0-3.551-5.487 6.865 6.865 0 1 0-5.237 12.617 7.175 7.175 0 0 0 5.153-.515.78.78 0 0 1 .989.306l3.356 5.793a.766.766 0 0 1-.279 1.045 15.61 15.61 0 0 1-11.14 1.392 15.43 15.43 0 0 1-8.969-6.712 15.112 15.112 0 0 1-1.984-10.236c1.574-10.848 14.845-16.53 23.758-9.79m2.182-12.533h.167a.752.752 0 0 1 .7.8v.02a.624.624 0 0 1 0 .236 10.6 10.6 0 0 1-4.177 5.1 11.4 11.4 0 0 1-7.144 1.393h-.167a.752.752 0 0 1-.7-.8V14.9a1.216 1.216 0 0 1 0-.209 10.5 10.5 0 0 1 4.081-5.11 11.387 11.387 0 0 1 7.241-1.435z"/>
    </g>
</svg>
