<svg id="Group_3483" data-name="Group 3483" xmlns="http://www.w3.org/2000/svg" width="188" height="56">
    <defs>
        <clipPath id="clip-path">
            <path id="Rectangle_1583" data-name="Rectangle 1583" style="fill:none" d="M0 0h188v56H0z"/>
        </clipPath>
        <style>
            .cls-3{fill:#00c662}
        </style>
    </defs>
    <g id="Group_3482" data-name="Group 3482" style="clip-path:url(#clip-path)">
        <path id="Path_5055" data-name="Path 5055" class="cls-3" d="M158.831 24.35c-.718.111-1.329.218-1.944.3a5.614 5.614 0 0 0-4.247 8.067 5.338 5.338 0 0 0 3.7 2.854c.594.174 1.206.289 1.81.431-1.466 5.672-5.3 10.732-10.564 11.756a6.172 6.172 0 0 1-4.694-.638 6.048 6.048 0 0 0-6.611.046c-2.273 1.363-4.507.867-6.642-.149-6.071-2.892-8.2-8.373-9.258-14.5a20.59 20.59 0 0 1 .081-7.667c.963-4.706 3.973-7.571 8.837-8.489 1.044-.2 2.11-.287 3.169-.394a6.882 6.882 0 0 1 4.473 1.083 4.893 4.893 0 0 0 5.37.016 6.723 6.723 0 0 1 4.749-1.075 31.591 31.591 0 0 1 5.751 1.284c3.229 1.163 4.967 3.776 6.024 7.075m-4.859-2.343c-.387-.369-.67-.688-1-.945a10.349 10.349 0 0 0-5-1.707 6.313 6.313 0 0 0-4.327.668 8.154 8.154 0 0 1-8.6-.282 3.713 3.713 0 0 0-2.418-.532c-.934.107-1.873.2-2.794.376-3.609.692-5.745 2.75-6.2 6.375a25.214 25.214 0 0 0 .019 6.181 17.456 17.456 0 0 0 3.687 9.222 8.741 8.741 0 0 0 5.078 3.194 3.4 3.4 0 0 0 2.439-.339 9.472 9.472 0 0 1 9.534-.029 3.646 3.646 0 0 0 2.709.327c3-.69 4.821-2.772 6.3-5.286.41-.7.382-1.078-.382-1.556a8.825 8.825 0 0 1 .052-15.081c.26-.161.514-.332.906-.586"/>
        <path id="Path_5056" data-name="Path 5056" class="cls-3" d="m147.9 10.449-7.154 4.041a3.136 3.136 0 0 1 .271-.65c1.529-1.786 3.057-3.573 4.609-5.338.628-.715.79-.676 1.282.177.324.563.636 1.133.992 1.77"/>
        <path id="Path_5057" data-name="Path 5057" class="cls-3" d="M140.078 13.522c.554-1.791 1.109-3.581 1.7-5.5l1.765 1.3-3.243 4.314z"/>
        <path id="Path_5058" data-name="Path 5058" class="cls-3" d="M84.436 29.452h10.746c1.5 0 2.158-.663 2.183-2.187.014-.817-.047-1.64.037-2.448.026-.255.412-.474.637-.706.016-.016.061 0 .092-.005 1.876-.149 1.9-.119 1.914 1.736a12.878 12.878 0 0 0 .128 2.158c.181 1.012.8 1.435 1.888 1.453a1.639 1.639 0 0 0 1.909-1.421 15.553 15.553 0 0 0 .155-2.9c-.018-.787.267-1.108 1.04-1.025a3.3 3.3 0 0 0 .659 0c.716-.069 1.045.2 1 .962-.049.783-.026 1.572 0 2.357a1.851 1.851 0 0 0 2.144 2.032 1.685 1.685 0 0 0 1.789-2.023 21.522 21.522 0 0 0-.462-3.438c-.151-.7.055-.955.676-1.159 1.608-.528 1.82-.468 2.08 1.264a20.587 20.587 0 0 1 .333 4.365 4.106 4.106 0 0 1-4.2 3.652 5.631 5.631 0 0 1-3.328-.777 1.191 1.191 0 0 0-1 .1 5.38 5.38 0 0 1-5.476.011 1.4 1.4 0 0 0-1.355.016 10.731 10.731 0 0 1-3.427.791c-6.975.071-13.95.042-20.925.017-.384 0-1.069-.22-1.1-.414a7.429 7.429 0 0 1 .075-2.2c.017-.111.616-.184.946-.185 3.613-.013 7.227-.008 10.84-.008"/>
        <path id="Path_5059" data-name="Path 5059" class="cls-3" d="M43.071 32.257c.7 2.751-.382 4.424-3.458 4.962a18.183 18.183 0 0 1-5.781.121c-3.588-.545-4.767-3.41-4.657-6.1a20.869 20.869 0 0 1 .931-4.2c.178-.691.626-.845 1.3-.53.616.287.988.523.625 1.32a7.39 7.39 0 0 0-.713 4.205c.309 2.076 1.248 3.192 3.313 3.326a24.358 24.358 0 0 0 4.941-.33c.707-.1 1.655-.559 1.519-1.388-.075-.457-1.017-.825-1.622-1.123a2.95 2.95 0 0 0-1.286-.221c-.857.008-1.1-.324-1.063-1.2.037-.891.349-1.1 1.181-1.094 3.393.038 6.786.014 10.179.017a1.153 1.153 0 0 1 1.084 1.8 1.1 1.1 0 0 1-.806.293c-1.508.029-3.016.007-4.524.021-.361 0-.721.073-1.165.122"/>
        <path id="Path_5060" data-name="Path 5060" class="cls-3" d="M59.486 32.128c-.063.243-.151.541-.219.844a5.577 5.577 0 0 1-6.13 4.421c-.732-.067-.672-.525-.653-.994s-.195-1.087.63-1.1c.22 0 .44 0 .66-.006 2.388-.047 3.527-1.144 3.587-3.534a79.386 79.386 0 0 0-.005-5c-.033-.9.441-.924 1.112-.94.708-.017 1.062.175 1 .952a13.936 13.936 0 0 0 0 1.884c.06 1.078.3 1.321 1.377 1.346 1.162.028 2.326.046 3.486 0 .83-.035.987.357 1 1.085.01.758-.205 1.075-1.01 1.05-1.563-.048-3.129-.014-4.834-.014"/>
        <path id="Path_5061" data-name="Path 5061" class="cls-3" d="M51.156 25.3c0-1.946.036-3.893-.017-5.837-.022-.845.355-.971 1.073-.979.752-.008 1.054.193 1.047 1q-.054 5.836 0 11.674c.008.841-.354.976-1.072.985-.754.01-1.066-.2-1.046-1.01.047-1.945.015-3.891.015-5.837"/>
        <path id="Path_5062" data-name="Path 5062" class="cls-3" d="M68.9 25.4c0 1.946-.031 3.892.015 5.837.019.825-.394.911-1.049.9-.634-.005-1.073-.045-1.067-.887q.049-5.931 0-11.863c-.007-.828.4-.9 1.05-.9.631.007 1.086.03 1.066.881-.047 2.007-.015 4.016-.015 6.025"/>
        <path id="Path_5063" data-name="Path 5063" class="cls-3" d="M60 36.439a1 1 0 1 0 1-1 1 1 0 0 0-1 1"/>
        <path id="Path_5064" data-name="Path 5064" class="cls-3" d="M63.33 36.458a1 1 0 1 0 1-1 1 1 0 0 0-1 1"/>
        <path id="Path_5065" data-name="Path 5065" class="cls-3" d="M74.512 36.458a1 1 0 1 0 1-1 1 1 0 0 0-1 1"/>
        <path id="Path_5066" data-name="Path 5066" class="cls-3" d="M46.112 19.619a1 1 0 1 0 1-1 1 1 0 0 0-1 1"/>
        <path id="Path_5067" data-name="Path 5067" class="cls-3" d="M89.512 36.458a1 1 0 1 0 1-1 1 1 0 0 0-1 1"/>
        <path id="Path_5068" data-name="Path 5068" class="cls-3" d="M92.961 36.458a1 1 0 1 0 1-1 1 1 0 0 0-1 1"/>
        <path id="Path_5069" data-name="Path 5069" class="cls-3" d="M178 2a8.009 8.009 0 0 1 8 8v36a8.009 8.009 0 0 1-8 8H10a8.009 8.009 0 0 1-8-8V10a8.009 8.009 0 0 1 8-8h168m0-2H10A10 10 0 0 0 0 10v36a10 10 0 0 0 10 10h168a10 10 0 0 0 10-10V10a10 10 0 0 0-10-10"/>
    </g>
</svg>
