<svg xmlns="http://www.w3.org/2000/svg" width="189" height="57">
    <defs>
        <style>
            .cls-2{fill:#0078d4}.cls-3{fill:#232326}
        </style>
    </defs>
    <g id="Group_3696" data-name="Group 3696" transform="translate(-1313.5 -492)">
        <rect id="Rectangle_1535" data-name="Rectangle 1535" width="188" height="56" rx="9" transform="translate(1314 492.5)" style="fill:#fff;stroke:#909096"/>
        <g id="Group_3671" data-name="Group 3671" transform="translate(1334 513)">
            <path id="Path_5079" data-name="Path 5079" class="cls-2" d="M12 6.534h15.987V-8L12-6.547z" transform="translate(-4.013)"/>
            <path id="Path_5080" data-name="Path 5080" class="cls-2" d="M5.08 6.965V-5.851L-8-4.662V6.965z" transform="translate(0 -.431)"/>
            <path id="Path_5081" data-name="Path 5081" class="cls-2" d="M12 13.818h15.987v14.534L12 26.9z" transform="translate(-4.013 -4.378)"/>
            <path id="Path_5082" data-name="Path 5082" class="cls-2" d="M5.08 13.818v12.816L-8 25.445V13.818z" transform="translate(0 -4.378)"/>
        </g>
        <g id="Group_3695" data-name="Group 3695" transform="translate(1364.951 507.487)">
            <path id="Path_5092" data-name="Path 5092" class="cls-3" d="m15.6 17.3 2.629-12.849h2.941l-3.938 17.063H14.4L11.15 9.056 7.834 21.514H4.986L1.049 4.451H3.99l2.649 12.821L9.9 4.451h2.485z"/>
            <path id="Path_5093" data-name="Path 5093" class="cls-3" d="M23.068 5.529a1.53 1.53 0 0 1 .416-1.1 1.564 1.564 0 0 1 1.19-.437 1.581 1.581 0 0 1 1.195.437 1.518 1.518 0 0 1 .422 1.1 1.486 1.486 0 0 1-.422 1.081 1.6 1.6 0 0 1-1.195.431 1.58 1.58 0 0 1-1.19-.431 1.5 1.5 0 0 1-.416-1.081zm3.024 15.985h-2.848V8.834h2.848z"/>
            <path id="Path_5094" data-name="Path 5094" class="cls-3" d="m31.834 8.834.082 1.465a4.56 4.56 0 0 1 3.691-1.7q3.962 0 4.032 4.535v8.38h-2.848V13.3a2.617 2.617 0 0 0-.521-1.788 2.2 2.2 0 0 0-1.706-.58A2.745 2.745 0 0 0 32 12.49v9.024h-2.85V8.834z"/>
            <path id="Path_5095" data-name="Path 5095" class="cls-3" d="M42.006 15.08a7.539 7.539 0 0 1 1.359-4.7A4.355 4.355 0 0 1 47.01 8.6a4.139 4.139 0 0 1 3.258 1.407V3.513h2.847v18h-2.578L50.4 20.2a4.194 4.194 0 0 1-3.41 1.547 4.329 4.329 0 0 1-3.6-1.793 7.813 7.813 0 0 1-1.384-4.874zm2.848.246a5.281 5.281 0 0 0 .744 3.018 2.413 2.413 0 0 0 2.115 1.084 2.69 2.69 0 0 0 2.555-1.559v-5.414a2.65 2.65 0 0 0-2.532-1.524 2.432 2.432 0 0 0-2.132 1.1 5.879 5.879 0 0 0-.75 3.295z"/>
            <path id="Path_5096" data-name="Path 5096" class="cls-3" d="M55.553 15.056a7.477 7.477 0 0 1 .738-3.357 5.394 5.394 0 0 1 2.074-2.3 5.847 5.847 0 0 1 3.071-.8 5.54 5.54 0 0 1 4.164 1.653 6.5 6.5 0 0 1 1.728 4.382l.012.669a7.533 7.533 0 0 1-.721 3.351 5.325 5.325 0 0 1-2.062 2.286 5.89 5.89 0 0 1-3.1.808 5.5 5.5 0 0 1-4.295-1.787 6.845 6.845 0 0 1-1.609-4.761zm2.847.244a5.107 5.107 0 0 0 .809 3.064 2.627 2.627 0 0 0 2.25 1.108A2.6 2.6 0 0 0 63.7 18.35a5.646 5.646 0 0 0 .8-3.294 5.05 5.05 0 0 0-.826-3.047 2.784 2.784 0 0 0-4.459-.017A5.536 5.536 0 0 0 58.4 15.3z"/>
            <path id="Path_5097" data-name="Path 5097" class="cls-3" d="M80.889 17.588 82.9 8.834h2.778l-3.457 12.68h-2.34l-2.719-8.708-2.672 8.708h-2.344l-3.468-12.68h2.777l2.051 8.66 2.6-8.66h2.145z"/>
            <path id="Path_5098" data-name="Path 5098" class="cls-3" d="M94.693 18.069a1.293 1.293 0 0 0-.627-1.161 6.679 6.679 0 0 0-2.08-.7 10.71 10.71 0 0 1-2.425-.773 3.239 3.239 0 0 1-2.133-2.989A3.374 3.374 0 0 1 88.811 9.7a5.465 5.465 0 0 1 3.515-1.1A5.689 5.689 0 0 1 96 9.724a3.569 3.569 0 0 1 1.4 2.918h-2.847a1.752 1.752 0 0 0-.61-1.365 2.336 2.336 0 0 0-1.617-.545 2.522 2.522 0 0 0-1.529.434 1.366 1.366 0 0 0-.592 1.16 1.154 1.154 0 0 0 .551 1.019 7.537 7.537 0 0 0 2.226.733 10.509 10.509 0 0 1 2.631.879 3.717 3.717 0 0 1 1.418 1.225 3.119 3.119 0 0 1 .463 1.734 3.3 3.3 0 0 1-1.418 2.772 6.045 6.045 0 0 1-3.715 1.06 6.553 6.553 0 0 1-2.777-.562 4.568 4.568 0 0 1-1.9-1.547 3.654 3.654 0 0 1-.68-2.121h2.765a2.01 2.01 0 0 0 .762 1.553 2.962 2.962 0 0 0 1.863.544 2.88 2.88 0 0 0 1.711-.427 1.324 1.324 0 0 0 .588-1.119z"/>
        </g>
    </g>
</svg>
