<svg xmlns="http://www.w3.org/2000/svg" width="25" height="25" viewBox="0 0 32 32">
    <path fill="#aaaaad" d="M30.639 21.136L27.66 1.94a1.025 1.025 0 0 0-1.169-.854l-8.1 1.252a.974.974 0 0 0-.194.071 1.009 1.009 0 0 0-.79-.4H1.024A1.023 1.023 0 0 0 0 3.036v26.58a1.023 1.023 0 0 0 1.024 1.022H17.41a1.023 1.023 0 0 0 1.025-1.022V9.272l3.181 20.5a1.027 1.027 0 0 0 1.012.866 1.057 1.057 0 0 0 .158-.012l8.1-1.253a1.024 1.024 0 0 0 .855-1.168zm-14.253.3h-6.144V4.058h6.144zM8.193 4.058v17.38H2.049V4.058zM2.049 23.482h6.144v5.111H2.049zm8.193 5.111v-5.111h6.144v5.111zm15.551-25.33l2.665 17.176-6.072.939L19.721 4.2zm-2.31 25.185L22.7 23.4l6.073-.938.783 5.049z" transform="translate(0 .018)"/>
    <path fill="none" d="M0 0H32V32H0z"/>
</svg>
