<svg xmlns="http://www.w3.org/2000/svg" width="42.07" height="49.946" viewBox="0 0 42.07 49.946">
  <defs>
    <style>
      .cls-1 {
        fill: #78787b;
      }
    </style>
  </defs>
  <path id="path4" class="cls-1" d="M41.188,38.923A27.155,27.155,0,0,1,38.5,43.751a24.529,24.529,0,0,1-3.459,4.18A6.71,6.71,0,0,1,30.6,49.889a11.143,11.143,0,0,1-4.107-.98,11.783,11.783,0,0,0-4.421-.977,12.183,12.183,0,0,0-4.546.977A12.232,12.232,0,0,1,13.6,49.942a6.318,6.318,0,0,1-4.546-2.01A25.758,25.758,0,0,1,5.432,43.6,29.936,29.936,0,0,1,1.607,36,27.826,27.826,0,0,1,0,26.947a16.54,16.54,0,0,1,2.172-8.653,12.741,12.741,0,0,1,4.549-4.6,12.237,12.237,0,0,1,6.15-1.735,14.48,14.48,0,0,1,4.757,1.107,15.291,15.291,0,0,0,3.773,1.11,22.576,22.576,0,0,0,4.184-1.307,13.828,13.828,0,0,1,5.687-1.01q6.3.509,9.459,4.98-5.637,3.416-5.58,9.558a10.544,10.544,0,0,0,3.462,7.944,11.377,11.377,0,0,0,3.459,2.269q-.416,1.207-.882,2.315ZM31.551,1A10.655,10.655,0,0,1,28.82,7.988c-2.2,2.566-4.85,4.049-7.729,3.815a7.776,7.776,0,0,1-.058-.946,10.947,10.947,0,0,1,2.9-7.062,11.157,11.157,0,0,1,3.53-2.65A10.525,10.525,0,0,1,31.5,0a9.078,9.078,0,0,1,.052,1Z" transform="translate(0 -0.001)"/>
</svg>
