<svg xmlns="http://www.w3.org/2000/svg" width="42.649" height="50" viewBox="0 0 42.649 50">
  <defs>
    <style>
      .cls-1 {
        fill: #a4c639;
      }
    </style>
  </defs>
  <g id="Group_3435" data-name="Group 3435" transform="translate(0)">
    <g id="Group_1" data-name="Group 1" transform="translate(0 0)">
      <path id="Path_1" data-name="Path 1" class="cls-1" d="M40.243,164.715h-.128a2.989,2.989,0,0,0-2.981,2.981v12.977a2.986,2.986,0,0,0,2.981,2.983h.13a2.989,2.989,0,0,0,2.981-2.983V167.7A2.993,2.993,0,0,0,40.243,164.715Z" transform="translate(-37.134 -148.411)"/>
      <path id="Path_2" data-name="Path 2" class="cls-1" d="M113.085,190.016a2.743,2.743,0,0,0,2.739,2.735h2.927v7.01a2.99,2.99,0,0,0,2.981,2.985h.128a2.991,2.991,0,0,0,2.985-2.985v-7.01h4.091v7.01a2.993,2.993,0,0,0,2.985,2.985h.126a2.989,2.989,0,0,0,2.983-2.985v-7.01h2.929a2.742,2.742,0,0,0,2.737-2.735V169.525H113.085Z" transform="translate(-105.567 -152.745)"/>
      <path id="Path_3" data-name="Path 3" class="cls-1" d="M132.932,4.354,135.257.765a.494.494,0,0,0-.145-.683.49.49,0,0,0-.683.145L132.018,3.94a15.939,15.939,0,0,0-11.925,0L117.687.227a.5.5,0,0,0-.833.538l2.327,3.589c-4.2,2.056-7.025,5.931-7.025,10.377,0,.273.017.542.041.809h27.72c.023-.267.038-.536.038-.809C139.956,10.285,137.125,6.41,132.932,4.354Zm-13.3,6.427a1.331,1.331,0,1,1,1.334-1.332A1.332,1.332,0,0,1,119.63,10.78Zm12.851,0a1.331,1.331,0,1,1,1.332-1.332A1.332,1.332,0,0,1,132.481,10.78Z" transform="translate(-104.731 0)"/>
      <path id="Path_4" data-name="Path 4" class="cls-1" d="M409.578,164.715h-.124a2.992,2.992,0,0,0-2.985,2.981v12.977a2.992,2.992,0,0,0,2.985,2.983h.126a2.988,2.988,0,0,0,2.981-2.983V167.7A2.991,2.991,0,0,0,409.578,164.715Z" transform="translate(-369.912 -148.411)"/>
    </g>
  </g>
</svg>
