<svg xmlns="http://www.w3.org/2000/svg" xmlns:xlink="http://www.w3.org/1999/xlink" width="64.969" height="49.946" viewBox="0 0 64.969 49.946">
  <defs>
    <style>
      .cls-1 {
        fill: #28c5cc;
      }

      .cls-2 {
        clip-path: url(#clip-path);
      }
    </style>
    <clipPath id="clip-path">
      <rect id="Rectangle_1465" data-name="Rectangle 1465" class="cls-1" width="64.969" height="49.946"/>
    </clipPath>
  </defs>
  <g id="Group_3436" data-name="Group 3436" transform="translate(0)">
    <g id="Group_3167" data-name="Group 3167" class="cls-2" transform="translate(0 0)">
      <path id="Path_4576" data-name="Path 4576" class="cls-1" d="M64.966,45.285v-.029a.972.972,0,0,0-.016-.111l0-.01a.949.949,0,0,0-.028-.1l-.008-.025q-.017-.044-.038-.085l-.005-.015-5.09-10.039V1.843A1.843,1.843,0,0,0,57.935,0H7.035A1.844,1.844,0,0,0,5.192,1.843v33.03L.1,44.913.1,44.927c-.013.027-.024.055-.036.084l-.009.026a.947.947,0,0,0-.027.1l0,.01a.763.763,0,0,0-.016.111v.028a.568.568,0,0,0,0,.06v2.414a2.19,2.19,0,0,0,2.187,2.188H62.782a2.19,2.19,0,0,0,2.187-2.188V45.343a.536.536,0,0,0,0-.058M7.837,1.9h49.3a.739.739,0,0,1,.74.739V33.41a.739.739,0,0,1-.74.739H7.837a.74.74,0,0,1-.74-.739V2.644a.739.739,0,0,1,.74-.739M6.729,36.052H58.241l4.228,8.338H41.559l-1.049-3.8a1.8,1.8,0,0,0-1.728-1.316H26.189a1.8,1.8,0,0,0-1.729,1.316l-1.048,3.8H2.5Zm32.855,8.338h-14.2l.888-3.217H38.7Zm23.482,3.366a.286.286,0,0,1-.285.285H2.188a.286.286,0,0,1-.285-.285V46.3H63.067Z" transform="translate(0 0)"/>
      <path id="Path_4577" data-name="Path 4577" class="cls-1" d="M54.254,30.912H9.931V4.809H54.254Zm.47-27.147H9.459a.573.573,0,0,0-.572.573V31.382a.573.573,0,0,0,.572.574H54.724a.574.574,0,0,0,.574-.574V4.338a.573.573,0,0,0-.574-.573" transform="translate(0.392 0.166)"/>
    </g>
  </g>
</svg>
